<svg xmlns="http://www.w3.org/2000/svg" width="49" height="49" viewBox="0 0 49 49" fill="none">
  <path d="M36.6989 29.5193C36.5401 29.5193 36.3878 29.4561 36.2754 29.3437C36.1631 29.2312 36.1 29.0787 36.1 28.9196V14.7504C36.0984 14.6804 36.1111 14.6108 36.1372 14.5458L38.3935 8.33053C36.6293 7.05679 34.099 6.19678 30.6727 5.71331C30.5829 7.40952 29.8467 9.00661 28.6159 10.1755C27.385 11.3443 25.7532 11.9959 24.0569 11.9959C22.3605 11.9959 20.7287 11.3443 19.4978 10.1755C18.267 9.00661 17.5308 7.40952 17.441 5.71331C15.0454 5.79699 12.5197 6.67094 9.74805 8.37702L11.9858 14.5505C12.0119 14.6154 12.0246 14.685 12.023 14.755V28.9196C12.0097 29.0701 11.9407 29.2103 11.8294 29.3123C11.7181 29.4144 11.5727 29.471 11.4217 29.471C11.2708 29.471 11.1254 29.4144 11.0141 29.3123C10.9028 29.2103 10.8337 29.0701 10.8205 28.9196V14.8666L8.44809 8.35842C8.40109 8.22938 8.3994 8.08816 8.44328 7.95803C8.48717 7.8279 8.57401 7.71662 8.68951 7.64252C11.8001 5.61569 14.6554 4.60227 17.4131 4.5H18.0492C18.1311 4.49993 18.2122 4.51682 18.2873 4.54962C18.3624 4.58242 18.4299 4.63042 18.4856 4.6906C18.5428 4.74839 18.5872 4.81757 18.616 4.89364C18.6448 4.96972 18.6573 5.051 18.6527 5.13222V5.24844C18.6527 5.29958 18.6527 5.35071 18.6527 5.4065C18.6527 6.8453 19.2236 8.22518 20.2397 9.24257C21.2557 10.26 22.6338 10.8315 24.0708 10.8315C25.5077 10.8315 26.8858 10.26 27.9019 9.24257C28.918 8.22518 29.4888 6.8453 29.4888 5.4065C29.4888 5.35071 29.4888 5.29958 29.4888 5.24844V5.13222C29.4842 5.051 29.4968 4.96972 29.5256 4.89364C29.5543 4.81757 29.5988 4.74839 29.656 4.6906C29.7116 4.63042 29.7792 4.58242 29.8543 4.54962C29.9294 4.51682 30.0104 4.49993 30.0924 4.5H30.7098H30.7934C34.7026 5.0439 37.5578 6.07126 39.5124 7.63787C39.6116 7.71639 39.6835 7.82434 39.7177 7.94626C39.7519 8.06819 39.7467 8.19782 39.7028 8.31658L37.2886 14.8666V28.9196C37.2874 29.0767 37.2252 29.2272 37.1151 29.3391C37.005 29.451 36.8558 29.5157 36.6989 29.5193Z" fill="#7A3422" stroke="#7A3422" stroke-width="0.6"/>
  <path d="M37.3027 44.2882H10.8115V39.7697H12.0139V43.0842H36.0956V39.7697H37.3027V44.2882Z" fill="#7A3422" stroke="#7A3422" stroke-width="0.6"/>
  <path d="M37.2891 20.9657C37.1858 20.9654 37.0843 20.9388 36.9941 20.8884C36.904 20.838 36.8281 20.7654 36.7737 20.6775C36.6912 20.5411 36.6659 20.3776 36.7033 20.2226C36.7407 20.0676 36.8378 19.9337 36.9734 19.85L42.2521 16.6192L38.8583 8.65596C38.7967 8.50925 38.7959 8.34405 38.856 8.19672C38.916 8.04938 39.0321 7.93198 39.1786 7.87033C39.3252 7.80869 39.4902 7.80785 39.6373 7.868C39.7844 7.92816 39.9017 8.04438 39.9633 8.19109L43.7888 17.1027L37.6187 20.8774C37.5196 20.938 37.4051 20.9686 37.2891 20.9657Z" fill="#7A3422" stroke="#7A3422" stroke-width="0.6"/>
  <path d="M11.4106 20.91C11.3022 20.9097 11.196 20.8791 11.1041 20.8216L4.96185 17.1027L8.13745 8.21901C8.15869 8.13804 8.1965 8.06236 8.24849 7.99679C8.30047 7.93122 8.3655 7.87718 8.43944 7.83809C8.51338 7.799 8.59462 7.77573 8.67802 7.76974C8.76142 7.76375 8.84515 7.77517 8.92391 7.80329C9.00267 7.83141 9.07473 7.8756 9.13553 7.93308C9.19633 7.99055 9.24454 8.06004 9.2771 8.13715C9.30967 8.21426 9.32588 8.29731 9.3247 8.38102C9.32352 8.46473 9.30499 8.54729 9.27027 8.62345L6.4243 16.6006L11.7263 19.7943C11.8626 19.8772 11.9606 20.0108 11.9989 20.1658C12.0372 20.3209 12.0126 20.4848 11.9306 20.6217C11.8751 20.7097 11.7984 20.7822 11.7075 20.8326C11.6166 20.883 11.5145 20.9096 11.4106 20.91Z" fill="#7A3422" stroke="#7A3422" stroke-width="0.6"/>
  <path d="M24.3589 15.034C19.2519 15.034 15.0735 10.799 14.7578 5.39724L15.9324 5.33215C16.1923 10.1157 19.8972 13.8672 24.3681 13.8672C28.723 13.8672 32.4232 10.2179 32.7761 5.56924L33.9414 5.65756C33.5375 10.9106 29.3266 15.034 24.3589 15.034Z" fill="#7A3422" stroke="#7A3422" stroke-width="0.6"/>
  <path d="M39.3967 28.915H38.2221V31.9274H39.3967V28.915Z" fill="#DB6B2D" stroke="#DB6B2D" stroke-width="0.6"/>
  <path d="M32.1682 28.915H30.9936V31.9274H32.1682V28.915Z" fill="#DB6B2D" stroke="#DB6B2D" stroke-width="0.6"/>
  <path d="M27.9573 28.915H26.7827V31.9274H27.9573V28.915Z" fill="#DB6B2D" stroke="#DB6B2D" stroke-width="0.6"/>
  <path d="M20.7278 28.915H19.5532V31.9274H20.7278V28.915Z" fill="#DB6B2D" stroke="#DB6B2D" stroke-width="0.6"/>
  <path d="M17.1164 28.915H15.9418V31.9274H17.1164V28.915Z" fill="#DB6B2D" stroke="#DB6B2D" stroke-width="0.6"/>
  <path d="M9.89232 28.915H8.71771V31.9274H9.89232V28.915Z" fill="#DB6B2D" stroke="#DB6B2D" stroke-width="0.6"/>
  <path d="M35.78 28.915H34.6054V33.1361H35.78V28.915Z" fill="#DB6B2D" stroke="#DB6B2D" stroke-width="0.6"/>
  <path d="M24.3401 28.915H23.1655V33.1361H24.3401V28.915Z" fill="#DB6B2D" stroke="#DB6B2D" stroke-width="0.6"/>
  <path d="M14.1081 28.915H12.9335V33.1361H14.1081V28.915Z" fill="#DB6B2D" stroke="#DB6B2D" stroke-width="0.6"/>
  <path d="M43.046 40.3554H5.06865C4.44025 40.3554 3.83752 40.1057 3.39274 39.6612C2.94795 39.2168 2.69746 38.6137 2.69623 37.9845V30.7047C2.70113 30.0779 2.95324 29.4784 3.39763 29.037C3.84201 28.5955 4.44265 28.3478 5.06865 28.3478H43.046C43.6752 28.3478 44.2786 28.5981 44.7235 29.0435C45.1684 29.489 45.4184 30.0932 45.4184 30.7233V37.9845C45.4171 38.6137 45.1667 39.2168 44.7219 39.6612C44.2771 40.1057 43.6744 40.3554 43.046 40.3554ZM5.06865 29.5053C4.91074 29.5047 4.75426 29.5352 4.60814 29.5952C4.46201 29.6551 4.32911 29.7433 4.21702 29.8547C4.10493 29.966 4.01585 30.0984 3.95485 30.2443C3.89386 30.3901 3.86216 30.5466 3.86155 30.7047V37.9845C3.86216 38.1426 3.89386 38.2991 3.95485 38.4449C4.01585 38.5908 4.10493 38.7232 4.21702 38.8345C4.32911 38.9459 4.46201 39.0341 4.60814 39.094C4.75426 39.154 4.91074 39.1845 5.06865 39.1839H43.046C43.2039 39.1845 43.3603 39.154 43.5065 39.094C43.6526 39.0341 43.7855 38.9459 43.8976 38.8345C44.0097 38.7232 44.0988 38.5908 44.1598 38.4449C44.2207 38.2991 44.2524 38.1426 44.2531 37.9845V30.7047C44.2518 30.387 44.1252 30.0826 43.9009 29.8579C43.6765 29.6333 43.3725 29.5065 43.0552 29.5053H5.06865Z" fill="#7A3422" stroke="#7A3422" stroke-width="0.6"/>
</svg>