<svg width="81" height="81" viewBox="0 0 81 81" fill="none" xmlns="http://www.w3.org/2000/svg">
<mask id="mask0_1_466" style="mask-type:luminance" maskUnits="userSpaceOnUse" x="11" y="11" width="59" height="59">
<path d="M69.995 11.5H11.995V69.5H69.995V11.5Z" fill="white"/>
</mask>
<g mask="url(#mask0_1_466)">
<path d="M44.9249 49.7809C44.9218 49.7719 44.9198 49.7639 44.9178 49.755C44.7974 49.3218 44.9801 48.8717 45.4168 48.4236C45.7973 48.0343 46.3907 47.629 47.1527 47.2307C47.1557 47.2287 47.1597 47.2267 47.1627 47.2257L46.8284 46.0278C46.8274 46.0228 46.8254 46.0169 46.8244 46.0119C46.7782 45.8287 46.7782 45.6424 46.8334 45.4513C46.8616 45.3527 46.9047 45.2531 46.963 45.1535C46.4901 44.5461 46.0062 43.9586 45.5222 43.3701C43.6538 41.0988 41.7864 38.8274 40.4772 35.4069C39.7864 34.1891 40.0927 32.4734 40.7212 30.8324C41.2864 29.3556 42.1067 27.9357 42.6689 27.0295L38.7152 20.3051C38.6961 20.2722 38.6821 20.2384 38.673 20.2035H38.672L37.4773 15.5573C37.4231 15.3442 37.5526 15.1271 37.7674 15.0733C37.916 15.0355 38.0666 15.0863 38.163 15.1918L41.6328 18.4928C41.6609 18.5197 41.683 18.5486 41.7021 18.5804L45.2793 24.6646C45.3777 24.5839 45.4771 24.5023 45.5785 24.4186C47.5613 22.7876 50.0834 20.7124 51.9136 22.5456C51.9478 22.5804 51.9829 22.6153 52.016 22.6501C52.2279 22.5555 52.4447 22.4958 52.6626 22.4669C53.4608 22.3624 54.265 22.681 55.032 23.2625C55.1686 23.2376 55.3031 23.2207 55.4346 23.2108C56.6173 23.1261 57.5811 23.631 58.3261 24.4913C59.0339 25.3088 59.5349 26.451 59.8281 27.7017C59.9676 28.2981 60.061 28.9195 60.1062 29.5409C60.1614 30.2907 60.054 31.865 59.9636 33.1824C59.9345 33.6086 59.9074 34.0069 59.8883 34.3335C59.806 36.337 59.5138 38.6163 59.2437 40.7233C59.2227 40.8896 59.2016 41.0539 59.1805 41.2172C59.4174 41.268 59.6263 41.3497 59.807 41.4443C60.1403 41.6205 60.3823 41.8496 60.5319 42.0228C60.5861 42.0856 60.6292 42.1513 60.6644 42.218C60.6965 42.2817 60.7226 42.3494 60.7417 42.4211C60.7618 42.458 60.7768 42.4998 60.7849 42.5436C60.8853 43.1042 60.9847 43.6519 61.0831 44.1797C61.8772 44.2225 62.5398 44.331 63.0298 44.5073C63.59 44.7084 63.9535 45.0081 64.0729 45.4074L64.0739 45.4104C64.099 45.4493 64.1171 45.4931 64.1261 45.5419C64.835 48.9932 65.608 52.4913 66.5508 55.9656C67.4895 59.4269 68.5929 62.8503 69.9643 66.1523C70.0487 66.3554 69.9503 66.5875 69.7465 66.6701C69.5417 66.7537 69.3077 66.6562 69.2244 66.454C67.8359 63.1092 66.7214 59.6559 65.7767 56.1707C64.9303 53.052 64.2175 49.8954 63.5629 46.7637C63.2627 47.0724 62.845 47.3811 62.328 47.6828C61.2025 48.34 59.57 49.0071 57.6444 49.5767C56.8954 49.7978 56.0942 50.0069 55.2529 50.1961C52.6847 50.7746 50.2791 51.0465 48.4659 51.0196C47.488 51.0047 46.6658 50.8941 46.0564 50.688L51.2721 67.0037C51.3383 67.2138 51.2219 67.4368 51.01 67.5036C50.7982 67.5693 50.5733 67.4538 50.506 67.2437L44.9239 49.7799L44.9249 49.7809ZM22.7668 31.146V25.9591H21.1765C20.9546 25.9591 20.7749 25.7808 20.7749 25.5608C20.7749 25.4602 20.8121 25.3696 20.8733 25.2989L24.834 19.7465C24.9615 19.5682 25.2105 19.5254 25.3913 19.6519C25.4314 19.6808 25.4656 19.7146 25.4917 19.7534L29.4715 25.3327C29.599 25.511 29.5558 25.7589 29.3761 25.8854C29.3058 25.9342 29.2255 25.9581 29.1452 25.9581V25.9601H27.5549V31.147C27.5549 31.3671 27.3751 31.5453 27.1533 31.5453H23.1684C22.9465 31.5453 22.7668 31.3661 22.7668 31.146ZM23.57 25.5608V30.7477H26.7517V25.5608C26.7517 25.3407 26.9314 25.1625 27.1533 25.1625H28.3721L25.1613 20.6616L21.9506 25.1625H23.1694C23.3913 25.1625 23.57 25.3407 23.57 25.5608ZM22.7668 52.4196V47.2327H21.1765C20.9546 47.2327 20.7749 47.0544 20.7749 46.8344C20.7749 46.7338 20.8121 46.6432 20.8733 46.5725L24.834 41.0201C24.9615 40.8418 25.2105 40.799 25.3913 40.9255C25.4314 40.9544 25.4656 40.9882 25.4917 41.0271L29.4715 46.6063C29.599 46.7846 29.5558 47.0325 29.3761 47.159C29.3058 47.2078 29.2255 47.2317 29.1452 47.2317V47.2337H27.5549V52.4206C27.5549 52.6407 27.3751 52.8189 27.1533 52.8189H23.1684C22.9465 52.8189 22.7668 52.6397 22.7668 52.4196ZM23.57 46.8344V52.0213H26.7517V46.8344C26.7517 46.6143 26.9314 46.4361 27.1533 46.4361H28.3721L25.1613 41.9352L21.9506 46.4361H23.1694C23.3913 46.4361 23.57 46.6143 23.57 46.8344ZM15.0401 36.2145H35.2755V15.8709H15.0401V36.2145ZM35.2755 37.0111H15.0401V56.817H35.2755V37.0111ZM15.0401 16.4077V15.0733H35.2755V11.8988C35.2755 11.6788 35.4552 11.5005 35.6771 11.5005C35.899 11.5005 36.0787 11.6788 36.0787 11.8988V66.4889C36.0787 66.7089 35.899 66.8872 35.6771 66.8872C35.4552 66.8872 35.2755 66.7089 35.2755 66.4889V60.564H15.0401V66.4889C15.0401 66.7089 14.8604 66.8872 14.6385 66.8872C14.4167 66.8872 14.2369 66.7089 14.2369 66.4889V11.8988C14.2369 11.6788 14.4167 11.5005 14.6385 11.5005C14.8604 11.5005 15.0401 11.6788 15.0401 11.8988V15.611V16.4077ZM35.2755 57.6136H15.0401V59.7674H35.2755V57.6136ZM51.01 27.4079C51.0191 27.4239 51.0271 27.4408 51.0341 27.4577C51.1245 27.6449 51.2229 27.8212 51.3273 27.9865C51.7219 28.6108 52.2098 29.0838 52.753 29.3855C52.9457 29.4931 53.015 29.735 52.9066 29.9272C52.8072 30.1035 52.5933 30.1752 52.4086 30.1025C51.9779 30.5376 51.9166 31.147 51.8544 31.7604C51.769 32.6068 51.6817 33.4592 50.8434 34.1264L54.8172 40.8847C54.8312 40.9096 54.8433 40.9344 54.8513 40.9603C54.9898 41.3298 54.9728 41.6833 54.8513 41.9999C54.7178 42.3464 54.4557 42.6412 54.1385 42.8523C53.769 43.0983 53.3142 43.2337 52.8945 43.2068C52.4809 43.1799 52.0994 43.0037 51.8443 42.6352C51.8373 42.6253 51.8303 42.6143 51.8243 42.6034L47.5965 35.4129L44.5313 34.0039C44.4982 34.0607 44.464 34.1164 44.4299 34.1732C44.3275 34.3454 44.2231 34.5187 44.1849 34.5854C44.0745 34.7756 43.8305 34.8403 43.6387 34.7318C43.447 34.6223 43.3817 34.3803 43.4912 34.1901C43.6157 33.975 43.6779 33.8715 43.7402 33.7679C44.1327 33.1097 44.5102 32.4784 44.6729 31.7664C44.714 31.5862 44.7733 30.8981 44.7622 30.1065C44.7552 29.5956 44.718 29.047 44.6247 28.576C44.6186 28.5451 44.6076 28.5043 44.5905 28.4555C44.5213 28.2553 44.3767 27.9646 44.1498 27.7475C43.954 27.5593 43.6879 27.4308 43.3466 27.4975C43.3365 27.4995 43.3255 27.5015 43.3145 27.5045C42.7703 28.3858 41.9982 29.732 41.4701 31.1132C40.9109 32.575 40.6208 34.0716 41.187 35.0395C41.1991 35.0604 41.2091 35.0823 41.2171 35.1042C42.4801 38.4181 44.3114 40.6447 46.1427 42.8702C47.0403 43.9606 47.9368 45.052 48.7762 46.2767C48.988 46.2977 49.2249 46.3106 49.482 46.3146C50.7179 46.3355 52.3654 46.1214 54.1354 45.6673C54.1415 45.6653 54.1465 45.6634 54.1525 45.6624V45.6634L54.1616 45.6614C55.6665 45.273 57.0109 44.7741 58.04 44.2553C58.0349 44.2225 58.0329 44.1896 58.0359 44.1548C58.1323 43.1062 58.2869 41.8974 58.4506 40.6258C58.6976 38.6989 58.9636 36.6258 59.067 34.7736C59.067 34.7647 59.067 34.7547 59.067 34.7457C59.0731 34.5914 59.0821 34.4151 59.0931 34.224C59.1313 33.2222 59.1142 32.3001 59.0108 31.5195C58.8863 30.5814 58.1795 28.8 57.1806 27.1122C56.539 26.0298 55.78 24.9952 54.9818 24.2613C54.8844 24.1717 54.786 24.086 54.6876 24.0064C54.6816 24.0014 54.6746 23.9964 54.6686 23.9914C54.024 23.4716 53.3734 23.1779 52.767 23.2566C52.7068 23.2645 52.6455 23.2765 52.5853 23.2914C53.3564 24.2304 53.9648 25.271 54.5471 26.2658C55.1736 27.3372 55.7679 28.3549 56.4838 29.0898C56.6374 29.2481 56.6324 29.499 56.4727 29.6514C56.3131 29.8037 56.0601 29.7988 55.9065 29.6404C55.1234 28.8369 54.5049 27.7783 53.8543 26.6641C53.1385 25.4393 52.3815 24.1438 51.3464 23.1072C50.0322 21.7898 47.8254 23.6061 46.0905 25.033C45.4499 25.5598 44.8686 26.0387 44.3737 26.3265C44.3566 26.3604 44.3536 26.4062 44.3626 26.457C44.3817 26.5615 44.445 26.674 44.5464 26.7736C44.5504 26.7766 44.5584 26.7846 44.5725 26.7975C45.0253 27.2058 46.1005 26.8543 47.0473 26.5446C47.4027 26.4281 47.7421 26.3176 48.0593 26.2449C48.488 26.1463 48.9077 26.0278 49.2882 25.8227C49.6597 25.6225 50.0071 25.3337 50.3133 24.8876C50.4368 24.7064 50.6857 24.6586 50.8685 24.7821C51.0512 24.9046 51.0994 25.1515 50.9749 25.3327C50.8263 25.5498 50.6697 25.737 50.505 25.9003C50.6265 26.459 50.7982 26.9618 51.01 27.4079ZM50.6125 28.3469C50.3072 28.6337 49.8976 28.8428 49.4468 29.0002C48.99 29.1595 48.495 29.265 48.0322 29.3447L50.4337 33.4283C50.9277 32.9703 50.993 32.325 51.0582 31.6828C51.1305 30.9658 51.2038 30.2518 51.7339 29.6524C51.3303 29.3218 50.9638 28.9036 50.6506 28.4067C50.6386 28.3868 50.6245 28.3668 50.6125 28.3469ZM47.0573 29.264C47.0483 29.2501 47.0393 29.2362 47.0322 29.2212L46.1086 27.6509C45.7823 27.7276 45.461 27.7764 45.1588 27.7744C45.2441 27.9287 45.3074 28.0781 45.3506 28.2015C45.3797 28.2872 45.4008 28.3639 45.4128 28.4246C45.5142 28.9384 45.5554 29.5389 45.5634 30.0985C45.5644 30.1931 45.5654 30.2867 45.5644 30.3793C45.5694 30.3863 45.5734 30.3932 45.5775 30.4002L46.229 31.5085C46.4007 31.3044 46.6467 31.0972 46.9419 30.925C46.9509 30.919 46.961 30.913 46.971 30.908C47.2672 30.7388 47.5684 30.6292 47.8324 30.5824L47.0573 29.264ZM47.5995 28.6078C48.1145 28.5272 48.6898 28.4206 49.1838 28.2493C49.6356 28.092 50.0211 27.8829 50.2159 27.5911C50.0572 27.2357 49.9217 26.8503 49.8123 26.439C49.7661 26.4669 49.7189 26.4938 49.6717 26.5187C49.2069 26.7696 48.725 26.907 48.239 27.0186C47.973 27.0793 47.6437 27.1869 47.2993 27.2994C47.1698 27.3422 47.0383 27.385 46.9057 27.4268L47.6005 28.6088L47.5995 28.6078ZM55.8643 24.0034C56.5962 24.7552 57.283 25.7141 57.8713 26.7079C58.4687 27.7166 58.9676 28.7671 59.313 29.6753C59.312 29.6484 59.31 29.6215 59.308 29.5966C59.2658 29.0141 59.1785 28.4336 59.049 27.8789C58.7839 26.7477 58.3392 25.7241 57.7197 25.0081C57.2197 24.4306 56.6002 24.0562 55.8643 24.0034ZM44.9269 33.3079L46.8917 34.211L45.4791 31.8082C45.471 31.864 45.463 31.9088 45.456 31.9407C45.3425 32.4385 45.1518 32.8817 44.9279 33.3088L44.9269 33.3079ZM43.3958 26.688C43.4631 26.682 43.5293 26.681 43.5926 26.683C43.5845 26.6521 43.5775 26.6223 43.5725 26.5914C43.5183 26.2907 43.5865 25.9949 43.7964 25.7659C43.8004 25.7609 43.8104 25.751 43.8245 25.737C43.8506 25.7111 43.8807 25.6882 43.9138 25.6703C44.1267 25.5518 44.3757 25.3775 44.6488 25.1674L41.0856 19.1072C41.0545 19.1082 41.0203 19.1102 40.9842 19.1142C40.7573 19.1381 40.4762 19.2346 40.1921 19.398C40.19 19.3999 40.187 19.4009 40.184 19.4029C39.8989 19.5672 39.673 19.7654 39.5385 19.9516C39.5174 19.9815 39.4983 20.0094 39.4822 20.0352L43.3938 26.689L43.3958 26.688ZM48.1085 31.0504C48.0774 31.0514 48.0432 31.0534 48.0071 31.0574C47.7822 31.0813 47.5031 31.1769 47.222 31.3372C47.218 31.3402 47.2119 31.3432 47.2069 31.3452C46.9218 31.5095 46.6959 31.7077 46.5614 31.8939C46.5403 31.9237 46.5212 31.9516 46.5051 31.9775L52.512 42.1941C52.6124 42.3335 52.77 42.4012 52.9437 42.4122C53.1897 42.4281 53.4628 42.3435 53.6917 42.1911C53.8774 42.0676 54.028 41.9023 54.1003 41.7151C54.1545 41.5747 54.1636 41.4184 54.1063 41.2541L48.1085 31.0504ZM39.3085 19.4527C39.4722 19.2844 39.683 19.1191 39.927 18.9767C39.932 18.9738 39.937 18.9708 39.9421 18.9688C40.187 18.8284 40.435 18.7278 40.6639 18.67L39.5726 17.6315L39.0596 17.4911L38.9431 18.0318L39.3085 19.4527ZM48.5432 47.0365C48.5001 47.0365 48.4569 47.0296 48.4157 47.0166C48.231 46.9847 48.0593 46.9449 47.9027 46.8981L48.8314 50.228C50.5402 50.216 52.7349 49.9491 55.0772 49.4224C55.8874 49.2402 56.6705 49.035 57.4155 48.815C58.7638 48.4167 59.9556 47.9725 60.9164 47.5225C60.7537 46.7278 60.6011 45.9481 60.4556 45.1804C60.3632 44.6915 60.2748 44.2195 60.1905 43.7624C59.8873 44.0642 59.4747 44.3659 58.9707 44.6566C57.8412 45.3079 56.2197 45.9491 54.3724 46.4261C54.3603 46.4291 54.3483 46.4331 54.3362 46.4361C52.4969 46.9081 50.7731 47.1311 49.4699 47.1082C49.1346 47.1022 48.8243 47.0793 48.5422 47.0375L48.5432 47.0365ZM58.8773 43.7843C59.6263 43.3173 60.0419 42.9021 59.9706 42.6302C59.9656 42.6113 59.9586 42.5934 59.9506 42.5765C59.9425 42.5605 59.9335 42.5466 59.9255 42.5366C59.8281 42.4231 59.6654 42.2708 59.4325 42.1483C59.3291 42.0935 59.2116 42.0457 59.0821 42.0119C59.0048 42.6332 58.9345 43.2287 58.8773 43.7843ZM47.3816 48.0114C46.7632 48.345 46.2883 48.6726 45.9901 48.9783C45.7632 49.2113 45.6548 49.4035 45.6889 49.5399L45.6979 49.5688C45.8375 49.9382 46.6899 50.1543 47.9951 50.213L47.3816 48.0114ZM61.6573 47.149C61.7497 47.0993 61.8381 47.0485 61.9234 46.9987C62.8621 46.45 63.3822 45.9691 63.3089 45.6464C63.3079 45.6434 63.3079 45.6454 63.3049 45.6355C63.2627 45.4961 63.0709 45.3676 62.7567 45.2551C62.3792 45.1197 61.8621 45.03 61.2336 44.9862L61.2427 45.035C61.3782 45.749 61.5158 46.455 61.6563 47.15L61.6573 47.149Z" fill="white"/>
<mask id="mask1_1_466" style="mask-type:luminance" maskUnits="userSpaceOnUse" x="13" y="10" width="58" height="59">
<path d="M70.2369 10.5005H13.2369V68.5005H70.2369V10.5005Z" fill="white" stroke="white" stroke-width="0.4"/>
<path d="M44.9249 49.7809C44.9218 49.7719 44.9198 49.7639 44.9178 49.755C44.7974 49.3218 44.9801 48.8717 45.4168 48.4236C45.7973 48.0343 46.3907 47.629 47.1527 47.2307C47.1557 47.2287 47.1597 47.2267 47.1627 47.2257L46.8284 46.0278C46.8274 46.0228 46.8254 46.0169 46.8244 46.0119C46.7782 45.8287 46.7782 45.6424 46.8334 45.4513C46.8616 45.3527 46.9047 45.2531 46.963 45.1535C46.4901 44.5461 46.0062 43.9586 45.5222 43.3701C43.6538 41.0988 41.7864 38.8274 40.4772 35.4069C39.7864 34.1891 40.0927 32.4734 40.7212 30.8324C41.2864 29.3556 42.1067 27.9357 42.6689 27.0295L38.7152 20.3051C38.6961 20.2722 38.6821 20.2384 38.673 20.2035H38.672L37.4773 15.5573C37.4231 15.3442 37.5526 15.1271 37.7674 15.0733C37.916 15.0355 38.0666 15.0863 38.163 15.1918L41.6328 18.4928C41.6609 18.5197 41.683 18.5486 41.7021 18.5804L45.2793 24.6646C45.3777 24.5839 45.4771 24.5023 45.5785 24.4186C47.5613 22.7876 50.0834 20.7124 51.9136 22.5456C51.9478 22.5804 51.9829 22.6153 52.016 22.6501C52.2279 22.5555 52.4447 22.4958 52.6626 22.4669C53.4608 22.3624 54.265 22.681 55.032 23.2625C55.1686 23.2376 55.3031 23.2207 55.4346 23.2108C56.6173 23.1261 57.5811 23.631 58.3261 24.4913C59.0339 25.3088 59.5349 26.451 59.8281 27.7017C59.9676 28.2981 60.061 28.9195 60.1062 29.5409C60.1614 30.2907 60.054 31.865 59.9636 33.1824C59.9345 33.6086 59.9074 34.0069 59.8883 34.3335C59.806 36.337 59.5138 38.6163 59.2437 40.7233C59.2227 40.8896 59.2016 41.0539 59.1805 41.2172C59.4174 41.268 59.6263 41.3497 59.807 41.4443C60.1403 41.6205 60.3823 41.8496 60.5319 42.0228C60.5861 42.0856 60.6292 42.1513 60.6644 42.218C60.6965 42.2817 60.7226 42.3494 60.7417 42.4211C60.7618 42.458 60.7768 42.4998 60.7849 42.5436C60.8853 43.1042 60.9847 43.6519 61.0831 44.1797C61.8772 44.2225 62.5398 44.331 63.0298 44.5073C63.59 44.7084 63.9535 45.0081 64.0729 45.4074L64.0739 45.4104C64.099 45.4493 64.1171 45.4931 64.1261 45.5419C64.835 48.9932 65.608 52.4913 66.5508 55.9656C67.4895 59.4269 68.5929 62.8503 69.9643 66.1523C70.0487 66.3554 69.9503 66.5875 69.7465 66.6701C69.5417 66.7537 69.3077 66.6562 69.2244 66.454C67.8359 63.1092 66.7214 59.6559 65.7767 56.1707C64.9303 53.052 64.2175 49.8954 63.5629 46.7637C63.2627 47.0724 62.845 47.3811 62.328 47.6828C61.2025 48.34 59.57 49.0071 57.6444 49.5767C56.8954 49.7978 56.0942 50.0069 55.2529 50.1961C52.6847 50.7746 50.2791 51.0465 48.4659 51.0196C47.488 51.0047 46.6658 50.8941 46.0564 50.688L51.2721 67.0037C51.3383 67.2138 51.2219 67.4368 51.01 67.5036C50.7982 67.5693 50.5733 67.4538 50.506 67.2437L44.9239 49.7799L44.9249 49.7809ZM22.7668 31.146V25.9591H21.1765C20.9546 25.9591 20.7749 25.7808 20.7749 25.5608C20.7749 25.4602 20.8121 25.3696 20.8733 25.2989L24.834 19.7465C24.9615 19.5682 25.2105 19.5254 25.3913 19.6519C25.4314 19.6808 25.4656 19.7146 25.4917 19.7534L29.4715 25.3327C29.599 25.511 29.5558 25.7589 29.3761 25.8854C29.3058 25.9342 29.2255 25.9581 29.1452 25.9581V25.9601H27.5549V31.147C27.5549 31.3671 27.3751 31.5453 27.1533 31.5453H23.1684C22.9465 31.5453 22.7668 31.3661 22.7668 31.146ZM23.57 25.5608V30.7477H26.7517V25.5608C26.7517 25.3407 26.9314 25.1625 27.1533 25.1625H28.3721L25.1613 20.6616L21.9506 25.1625H23.1694C23.3913 25.1625 23.57 25.3407 23.57 25.5608ZM22.7668 52.4196V47.2327H21.1765C20.9546 47.2327 20.7749 47.0544 20.7749 46.8344C20.7749 46.7338 20.8121 46.6432 20.8733 46.5725L24.834 41.0201C24.9615 40.8418 25.2105 40.799 25.3913 40.9255C25.4314 40.9544 25.4656 40.9882 25.4917 41.0271L29.4715 46.6063C29.599 46.7846 29.5558 47.0325 29.3761 47.159C29.3058 47.2078 29.2255 47.2317 29.1452 47.2317V47.2337H27.5549V52.4206C27.5549 52.6407 27.3751 52.8189 27.1533 52.8189H23.1684C22.9465 52.8189 22.7668 52.6397 22.7668 52.4196ZM23.57 46.8344V52.0213H26.7517V46.8344C26.7517 46.6143 26.9314 46.4361 27.1533 46.4361H28.3721L25.1613 41.9352L21.9506 46.4361H23.1694C23.3913 46.4361 23.57 46.6143 23.57 46.8344ZM15.0401 36.2145H35.2755V15.8709H15.0401V36.2145ZM35.2755 37.0111H15.0401V56.817H35.2755V37.0111ZM15.0401 16.4077V15.0733H35.2755V11.8988C35.2755 11.6788 35.4552 11.5005 35.6771 11.5005C35.899 11.5005 36.0787 11.6788 36.0787 11.8988V66.4889C36.0787 66.7089 35.899 66.8872 35.6771 66.8872C35.4552 66.8872 35.2755 66.7089 35.2755 66.4889V60.564H15.0401V66.4889C15.0401 66.7089 14.8604 66.8872 14.6385 66.8872C14.4167 66.8872 14.2369 66.7089 14.2369 66.4889V11.8988C14.2369 11.6788 14.4167 11.5005 14.6385 11.5005C14.8604 11.5005 15.0401 11.6788 15.0401 11.8988V15.611V16.4077ZM35.2755 57.6136H15.0401V59.7674H35.2755V57.6136ZM51.01 27.4079C51.0191 27.4239 51.0271 27.4408 51.0341 27.4577C51.1245 27.6449 51.2229 27.8212 51.3273 27.9865C51.7219 28.6108 52.2098 29.0838 52.753 29.3855C52.9457 29.4931 53.015 29.735 52.9066 29.9272C52.8072 30.1035 52.5933 30.1752 52.4086 30.1025C51.9779 30.5376 51.9166 31.147 51.8544 31.7604C51.769 32.6068 51.6817 33.4592 50.8434 34.1264L54.8172 40.8847C54.8312 40.9096 54.8433 40.9344 54.8513 40.9603C54.9898 41.3298 54.9728 41.6833 54.8513 41.9999C54.7178 42.3464 54.4557 42.6412 54.1385 42.8523C53.769 43.0983 53.3142 43.2337 52.8945 43.2068C52.4809 43.1799 52.0994 43.0037 51.8443 42.6352C51.8373 42.6253 51.8303 42.6143 51.8243 42.6034L47.5965 35.4129L44.5313 34.0039C44.4982 34.0607 44.464 34.1164 44.4299 34.1732C44.3275 34.3454 44.2231 34.5187 44.1849 34.5854C44.0745 34.7756 43.8305 34.8403 43.6387 34.7318C43.447 34.6223 43.3817 34.3803 43.4912 34.1901C43.6157 33.975 43.6779 33.8715 43.7402 33.7679C44.1327 33.1097 44.5102 32.4784 44.6729 31.7664C44.714 31.5862 44.7733 30.8981 44.7622 30.1065C44.7552 29.5956 44.718 29.047 44.6247 28.576C44.6186 28.5451 44.6076 28.5043 44.5905 28.4555C44.5213 28.2553 44.3767 27.9646 44.1498 27.7475C43.954 27.5593 43.6879 27.4308 43.3466 27.4975C43.3365 27.4995 43.3255 27.5015 43.3145 27.5045C42.7703 28.3858 41.9982 29.732 41.4701 31.1132C40.9109 32.575 40.6208 34.0716 41.187 35.0395C41.1991 35.0604 41.2091 35.0823 41.2171 35.1042C42.4801 38.4181 44.3114 40.6447 46.1427 42.8702C47.0403 43.9606 47.9368 45.052 48.7762 46.2767C48.988 46.2977 49.2249 46.3106 49.482 46.3146C50.7179 46.3355 52.3654 46.1214 54.1354 45.6673C54.1415 45.6653 54.1465 45.6634 54.1525 45.6624V45.6634L54.1616 45.6614C55.6665 45.273 57.0109 44.7741 58.04 44.2553C58.0349 44.2225 58.0329 44.1896 58.0359 44.1548C58.1323 43.1062 58.2869 41.8974 58.4506 40.6258C58.6976 38.6989 58.9636 36.6258 59.067 34.7736C59.067 34.7647 59.067 34.7547 59.067 34.7457C59.0731 34.5914 59.0821 34.4151 59.0931 34.224C59.1313 33.2222 59.1142 32.3001 59.0108 31.5195C58.8863 30.5814 58.1795 28.8 57.1806 27.1122C56.539 26.0298 55.78 24.9952 54.9818 24.2613C54.8844 24.1717 54.786 24.086 54.6876 24.0064C54.6816 24.0014 54.6746 23.9964 54.6686 23.9914C54.024 23.4716 53.3734 23.1779 52.767 23.2566C52.7068 23.2645 52.6455 23.2765 52.5853 23.2914C53.3564 24.2304 53.9648 25.271 54.5471 26.2658C55.1736 27.3372 55.7679 28.3549 56.4838 29.0898C56.6374 29.2481 56.6324 29.499 56.4727 29.6514C56.3131 29.8037 56.0601 29.7988 55.9065 29.6404C55.1234 28.8369 54.5049 27.7783 53.8543 26.6641C53.1385 25.4393 52.3815 24.1438 51.3464 23.1072C50.0322 21.7898 47.8254 23.6061 46.0905 25.033C45.4499 25.5598 44.8686 26.0387 44.3737 26.3265C44.3566 26.3604 44.3536 26.4062 44.3626 26.457C44.3817 26.5615 44.445 26.674 44.5464 26.7736C44.5504 26.7766 44.5584 26.7846 44.5725 26.7975C45.0253 27.2058 46.1005 26.8543 47.0473 26.5446C47.4027 26.4281 47.7421 26.3176 48.0593 26.2449C48.488 26.1463 48.9077 26.0278 49.2882 25.8227C49.6597 25.6225 50.0071 25.3337 50.3133 24.8876C50.4368 24.7064 50.6857 24.6586 50.8685 24.7821C51.0512 24.9046 51.0994 25.1515 50.9749 25.3327C50.8263 25.5498 50.6697 25.737 50.505 25.9003C50.6265 26.459 50.7982 26.9618 51.01 27.4079ZM50.6125 28.3469C50.3072 28.6337 49.8976 28.8428 49.4468 29.0002C48.99 29.1595 48.495 29.265 48.0322 29.3447L50.4337 33.4283C50.9277 32.9703 50.993 32.325 51.0582 31.6828C51.1305 30.9658 51.2038 30.2518 51.7339 29.6524C51.3303 29.3218 50.9638 28.9036 50.6506 28.4067C50.6386 28.3868 50.6245 28.3668 50.6125 28.3469ZM47.0573 29.264C47.0483 29.2501 47.0393 29.2362 47.0322 29.2212L46.1086 27.6509C45.7823 27.7276 45.461 27.7764 45.1588 27.7744C45.2441 27.9287 45.3074 28.0781 45.3506 28.2015C45.3797 28.2872 45.4008 28.3639 45.4128 28.4246C45.5142 28.9384 45.5554 29.5389 45.5634 30.0985C45.5644 30.1931 45.5654 30.2867 45.5644 30.3793C45.5694 30.3863 45.5734 30.3932 45.5775 30.4002L46.229 31.5085C46.4007 31.3044 46.6467 31.0972 46.9419 30.925C46.9509 30.919 46.961 30.913 46.971 30.908C47.2672 30.7388 47.5684 30.6292 47.8324 30.5824L47.0573 29.264ZM47.5995 28.6078C48.1145 28.5272 48.6898 28.4206 49.1838 28.2493C49.6356 28.092 50.0211 27.8829 50.2159 27.5911C50.0572 27.2357 49.9217 26.8503 49.8123 26.439C49.7661 26.4669 49.7189 26.4938 49.6717 26.5187C49.2069 26.7696 48.725 26.907 48.239 27.0186C47.973 27.0793 47.6437 27.1869 47.2993 27.2994C47.1698 27.3422 47.0383 27.385 46.9057 27.4268L47.6005 28.6088L47.5995 28.6078ZM55.8643 24.0034C56.5962 24.7552 57.283 25.7141 57.8713 26.7079C58.4687 27.7166 58.9676 28.7671 59.313 29.6753C59.312 29.6484 59.31 29.6215 59.308 29.5966C59.2658 29.0141 59.1785 28.4336 59.049 27.8789C58.7839 26.7477 58.3392 25.7241 57.7197 25.0081C57.2197 24.4306 56.6002 24.0562 55.8643 24.0034ZM44.9269 33.3079L46.8917 34.211L45.4791 31.8082C45.471 31.864 45.463 31.9088 45.456 31.9407C45.3425 32.4385 45.1518 32.8817 44.9279 33.3088L44.9269 33.3079ZM43.3958 26.688C43.4631 26.682 43.5293 26.681 43.5926 26.683C43.5845 26.6521 43.5775 26.6223 43.5725 26.5914C43.5183 26.2907 43.5865 25.9949 43.7964 25.7659C43.8004 25.7609 43.8104 25.751 43.8245 25.737C43.8506 25.7111 43.8807 25.6882 43.9138 25.6703C44.1267 25.5518 44.3757 25.3775 44.6488 25.1674L41.0856 19.1072C41.0545 19.1082 41.0203 19.1102 40.9842 19.1142C40.7573 19.1381 40.4762 19.2346 40.1921 19.398C40.19 19.3999 40.187 19.4009 40.184 19.4029C39.8989 19.5672 39.673 19.7654 39.5385 19.9516C39.5174 19.9815 39.4983 20.0094 39.4822 20.0352L43.3938 26.689L43.3958 26.688ZM48.1085 31.0504C48.0774 31.0514 48.0432 31.0534 48.0071 31.0574C47.7822 31.0813 47.5031 31.1769 47.222 31.3372C47.218 31.3402 47.2119 31.3432 47.2069 31.3452C46.9218 31.5095 46.6959 31.7077 46.5614 31.8939C46.5403 31.9237 46.5212 31.9516 46.5051 31.9775L52.512 42.1941C52.6124 42.3335 52.77 42.4012 52.9437 42.4122C53.1897 42.4281 53.4628 42.3435 53.6917 42.1911C53.8774 42.0676 54.028 41.9023 54.1003 41.7151C54.1545 41.5747 54.1636 41.4184 54.1063 41.2541L48.1085 31.0504ZM39.3085 19.4527C39.4722 19.2844 39.683 19.1191 39.927 18.9767C39.932 18.9738 39.937 18.9708 39.9421 18.9688C40.187 18.8284 40.435 18.7278 40.6639 18.67L39.5726 17.6315L39.0596 17.4911L38.9431 18.0318L39.3085 19.4527ZM48.5432 47.0365C48.5001 47.0365 48.4569 47.0296 48.4157 47.0166C48.231 46.9847 48.0593 46.9449 47.9027 46.8981L48.8314 50.228C50.5402 50.216 52.7349 49.9491 55.0772 49.4224C55.8874 49.2402 56.6705 49.035 57.4155 48.815C58.7638 48.4167 59.9556 47.9725 60.9164 47.5225C60.7537 46.7278 60.6011 45.9481 60.4556 45.1804C60.3632 44.6915 60.2748 44.2195 60.1905 43.7624C59.8873 44.0642 59.4747 44.3659 58.9707 44.6566C57.8412 45.3079 56.2197 45.9491 54.3724 46.4261C54.3603 46.4291 54.3483 46.4331 54.3362 46.4361C52.4969 46.9081 50.7731 47.1311 49.4699 47.1082C49.1346 47.1022 48.8243 47.0793 48.5422 47.0375L48.5432 47.0365ZM58.8773 43.7843C59.6263 43.3173 60.0419 42.9021 59.9706 42.6302C59.9656 42.6113 59.9586 42.5934 59.9506 42.5765C59.9425 42.5605 59.9335 42.5466 59.9255 42.5366C59.8281 42.4231 59.6654 42.2708 59.4325 42.1483C59.3291 42.0935 59.2116 42.0457 59.0821 42.0119C59.0048 42.6332 58.9345 43.2287 58.8773 43.7843ZM47.3816 48.0114C46.7632 48.345 46.2883 48.6726 45.9901 48.9783C45.7632 49.2113 45.6548 49.4035 45.6889 49.5399L45.6979 49.5688C45.8375 49.9382 46.6899 50.1543 47.9951 50.213L47.3816 48.0114ZM61.6573 47.149C61.7497 47.0993 61.8381 47.0485 61.9234 46.9987C62.8621 46.45 63.3822 45.9691 63.3089 45.6464C63.3079 45.6434 63.3079 45.6454 63.3049 45.6355C63.2627 45.4961 63.0709 45.3676 62.7567 45.2551C62.3792 45.1197 61.8621 45.03 61.2336 44.9862L61.2427 45.035C61.3782 45.749 61.5158 46.455 61.6563 47.15L61.6573 47.149Z" stroke="white" stroke-width="0.4"/>
</mask>
<g mask="url(#mask1_1_466)">
<path d="M44.9249 49.7809C44.9218 49.7719 44.9198 49.7639 44.9178 49.755C44.7974 49.3218 44.9801 48.8717 45.4168 48.4236C45.7973 48.0343 46.3907 47.629 47.1527 47.2307C47.1557 47.2287 47.1597 47.2267 47.1627 47.2257L46.8284 46.0278C46.8274 46.0228 46.8254 46.0169 46.8244 46.0119C46.7782 45.8287 46.7782 45.6424 46.8334 45.4513C46.8616 45.3527 46.9047 45.2531 46.963 45.1535C46.4901 44.5461 46.0062 43.9586 45.5222 43.3701C43.6538 41.0988 41.7864 38.8274 40.4772 35.4069C39.7864 34.1891 40.0927 32.4734 40.7212 30.8324C41.2864 29.3556 42.1067 27.9357 42.6689 27.0295L38.7152 20.3051C38.6961 20.2722 38.6821 20.2384 38.673 20.2035H38.672L37.4773 15.5573C37.4231 15.3442 37.5526 15.1271 37.7674 15.0733C37.916 15.0355 38.0666 15.0863 38.163 15.1918L41.6328 18.4928C41.6609 18.5197 41.683 18.5486 41.7021 18.5804L45.2793 24.6646C45.3777 24.5839 45.4771 24.5023 45.5785 24.4186C47.5613 22.7876 50.0834 20.7124 51.9136 22.5456C51.9478 22.5804 51.9829 22.6153 52.016 22.6501C52.2279 22.5555 52.4447 22.4958 52.6626 22.4669C53.4608 22.3624 54.265 22.681 55.032 23.2625C55.1686 23.2376 55.3031 23.2207 55.4346 23.2108C56.6173 23.1261 57.5811 23.631 58.3261 24.4913C59.0339 25.3088 59.5349 26.451 59.8281 27.7017C59.9676 28.2981 60.061 28.9195 60.1062 29.5409C60.1614 30.2907 60.054 31.865 59.9636 33.1824C59.9345 33.6086 59.9074 34.0069 59.8883 34.3335C59.806 36.337 59.5138 38.6163 59.2437 40.7233C59.2227 40.8896 59.2016 41.0539 59.1805 41.2172C59.4174 41.268 59.6263 41.3497 59.807 41.4443C60.1403 41.6205 60.3823 41.8496 60.5319 42.0228C60.5861 42.0856 60.6292 42.1513 60.6644 42.218C60.6965 42.2817 60.7226 42.3494 60.7417 42.4211C60.7618 42.458 60.7768 42.4998 60.7849 42.5436C60.8853 43.1042 60.9847 43.6519 61.0831 44.1797C61.8772 44.2225 62.5398 44.331 63.0298 44.5073C63.59 44.7084 63.9535 45.0081 64.0729 45.4074L64.0739 45.4104C64.099 45.4493 64.1171 45.4931 64.1261 45.5419C64.835 48.9932 65.608 52.4913 66.5508 55.9656C67.4895 59.4269 68.5929 62.8503 69.9643 66.1523C70.0487 66.3554 69.9503 66.5875 69.7465 66.6701C69.5417 66.7537 69.3077 66.6562 69.2244 66.454C67.8359 63.1092 66.7214 59.6559 65.7767 56.1707C64.9303 53.052 64.2175 49.8954 63.5629 46.7637C63.2627 47.0724 62.845 47.3811 62.328 47.6828C61.2025 48.34 59.57 49.0071 57.6444 49.5767C56.8954 49.7978 56.0942 50.0069 55.2529 50.1961C52.6847 50.7746 50.2791 51.0465 48.4659 51.0196C47.488 51.0047 46.6658 50.8941 46.0564 50.688L51.2721 67.0037C51.3383 67.2138 51.2219 67.4368 51.01 67.5036C50.7982 67.5693 50.5733 67.4538 50.506 67.2437L44.9239 49.7799L44.9249 49.7809ZM22.7668 31.146V25.9591H21.1765C20.9546 25.9591 20.7749 25.7808 20.7749 25.5608C20.7749 25.4602 20.8121 25.3696 20.8733 25.2989L24.834 19.7465C24.9615 19.5682 25.2105 19.5254 25.3913 19.6519C25.4314 19.6808 25.4656 19.7146 25.4917 19.7534L29.4715 25.3327C29.599 25.511 29.5558 25.7589 29.3761 25.8854C29.3058 25.9342 29.2255 25.9581 29.1452 25.9581V25.9601H27.5549V31.147C27.5549 31.3671 27.3751 31.5453 27.1533 31.5453H23.1684C22.9465 31.5453 22.7668 31.3661 22.7668 31.146ZM23.57 25.5608V30.7477H26.7517V25.5608C26.7517 25.3407 26.9314 25.1625 27.1533 25.1625H28.3721L25.1613 20.6616L21.9506 25.1625H23.1694C23.3913 25.1625 23.57 25.3407 23.57 25.5608ZM22.7668 52.4196V47.2327H21.1765C20.9546 47.2327 20.7749 47.0544 20.7749 46.8344C20.7749 46.7338 20.8121 46.6432 20.8733 46.5725L24.834 41.0201C24.9615 40.8418 25.2105 40.799 25.3913 40.9255C25.4314 40.9544 25.4656 40.9882 25.4917 41.0271L29.4715 46.6063C29.599 46.7846 29.5558 47.0325 29.3761 47.159C29.3058 47.2078 29.2255 47.2317 29.1452 47.2317V47.2337H27.5549V52.4206C27.5549 52.6407 27.3751 52.8189 27.1533 52.8189H23.1684C22.9465 52.8189 22.7668 52.6397 22.7668 52.4196ZM23.57 46.8344V52.0213H26.7517V46.8344C26.7517 46.6143 26.9314 46.4361 27.1533 46.4361H28.3721L25.1613 41.9352L21.9506 46.4361H23.1694C23.3913 46.4361 23.57 46.6143 23.57 46.8344ZM15.0401 36.2145H35.2755V15.8709H15.0401V36.2145ZM35.2755 37.0111H15.0401V56.817H35.2755V37.0111ZM15.0401 16.4077V15.0733H35.2755V11.8988C35.2755 11.6788 35.4552 11.5005 35.6771 11.5005C35.899 11.5005 36.0787 11.6788 36.0787 11.8988V66.4889C36.0787 66.7089 35.899 66.8872 35.6771 66.8872C35.4552 66.8872 35.2755 66.7089 35.2755 66.4889V60.564H15.0401V66.4889C15.0401 66.7089 14.8604 66.8872 14.6385 66.8872C14.4167 66.8872 14.2369 66.7089 14.2369 66.4889V11.8988C14.2369 11.6788 14.4167 11.5005 14.6385 11.5005C14.8604 11.5005 15.0401 11.6788 15.0401 11.8988V15.611V16.4077ZM35.2755 57.6136H15.0401V59.7674H35.2755V57.6136ZM51.01 27.4079C51.0191 27.4239 51.0271 27.4408 51.0341 27.4577C51.1245 27.6449 51.2229 27.8212 51.3273 27.9865C51.7219 28.6108 52.2098 29.0838 52.753 29.3855C52.9457 29.4931 53.015 29.735 52.9066 29.9272C52.8072 30.1035 52.5933 30.1752 52.4086 30.1025C51.9779 30.5376 51.9166 31.147 51.8544 31.7604C51.769 32.6068 51.6817 33.4592 50.8434 34.1264L54.8172 40.8847C54.8312 40.9096 54.8433 40.9344 54.8513 40.9603C54.9898 41.3298 54.9728 41.6833 54.8513 41.9999C54.7178 42.3464 54.4557 42.6412 54.1385 42.8523C53.769 43.0983 53.3142 43.2337 52.8945 43.2068C52.4809 43.1799 52.0994 43.0037 51.8443 42.6352C51.8373 42.6253 51.8303 42.6143 51.8243 42.6034L47.5965 35.4129L44.5313 34.0039C44.4982 34.0607 44.464 34.1164 44.4299 34.1732C44.3275 34.3454 44.2231 34.5187 44.1849 34.5854C44.0745 34.7756 43.8305 34.8403 43.6387 34.7318C43.447 34.6223 43.3817 34.3803 43.4912 34.1901C43.6157 33.975 43.6779 33.8715 43.7402 33.7679C44.1327 33.1097 44.5102 32.4784 44.6729 31.7664C44.714 31.5862 44.7733 30.8981 44.7622 30.1065C44.7552 29.5956 44.718 29.047 44.6247 28.576C44.6186 28.5451 44.6076 28.5043 44.5905 28.4555C44.5213 28.2553 44.3767 27.9646 44.1498 27.7475C43.954 27.5593 43.6879 27.4308 43.3466 27.4975C43.3365 27.4995 43.3255 27.5015 43.3145 27.5045C42.7703 28.3858 41.9982 29.732 41.4701 31.1132C40.9109 32.575 40.6208 34.0716 41.187 35.0395C41.1991 35.0604 41.2091 35.0823 41.2171 35.1042C42.4801 38.4181 44.3114 40.6447 46.1427 42.8702C47.0403 43.9606 47.9368 45.052 48.7762 46.2767C48.988 46.2977 49.2249 46.3106 49.482 46.3146C50.7179 46.3355 52.3654 46.1214 54.1354 45.6673C54.1415 45.6653 54.1465 45.6634 54.1525 45.6624V45.6634L54.1616 45.6614C55.6665 45.273 57.0109 44.7741 58.04 44.2553C58.0349 44.2225 58.0329 44.1896 58.0359 44.1548C58.1323 43.1062 58.2869 41.8974 58.4506 40.6258C58.6976 38.6989 58.9636 36.6258 59.067 34.7736C59.067 34.7647 59.067 34.7547 59.067 34.7457C59.0731 34.5914 59.0821 34.4151 59.0931 34.224C59.1313 33.2222 59.1142 32.3001 59.0108 31.5195C58.8863 30.5814 58.1795 28.8 57.1806 27.1122C56.539 26.0298 55.78 24.9952 54.9818 24.2613C54.8844 24.1717 54.786 24.086 54.6876 24.0064C54.6816 24.0014 54.6746 23.9964 54.6686 23.9914C54.024 23.4716 53.3734 23.1779 52.767 23.2566C52.7068 23.2645 52.6455 23.2765 52.5853 23.2914C53.3564 24.2304 53.9648 25.271 54.5471 26.2658C55.1736 27.3372 55.7679 28.3549 56.4838 29.0898C56.6374 29.2481 56.6324 29.499 56.4727 29.6514C56.3131 29.8037 56.0601 29.7988 55.9065 29.6404C55.1234 28.8369 54.5049 27.7783 53.8543 26.6641C53.1385 25.4393 52.3815 24.1438 51.3464 23.1072C50.0322 21.7898 47.8254 23.6061 46.0905 25.033C45.4499 25.5598 44.8686 26.0387 44.3737 26.3265C44.3566 26.3604 44.3536 26.4062 44.3626 26.457C44.3817 26.5615 44.445 26.674 44.5464 26.7736C44.5504 26.7766 44.5584 26.7846 44.5725 26.7975C45.0253 27.2058 46.1005 26.8543 47.0473 26.5446C47.4027 26.4281 47.7421 26.3176 48.0593 26.2449C48.488 26.1463 48.9077 26.0278 49.2882 25.8227C49.6597 25.6225 50.0071 25.3337 50.3133 24.8876C50.4368 24.7064 50.6857 24.6586 50.8685 24.7821C51.0512 24.9046 51.0994 25.1515 50.9749 25.3327C50.8263 25.5498 50.6697 25.737 50.505 25.9003C50.6265 26.459 50.7982 26.9618 51.01 27.4079ZM50.6125 28.3469C50.3072 28.6337 49.8976 28.8428 49.4468 29.0002C48.99 29.1595 48.495 29.265 48.0322 29.3447L50.4337 33.4283C50.9277 32.9703 50.993 32.325 51.0582 31.6828C51.1305 30.9658 51.2038 30.2518 51.7339 29.6524C51.3303 29.3218 50.9638 28.9036 50.6506 28.4067C50.6386 28.3868 50.6245 28.3668 50.6125 28.3469ZM47.0573 29.264C47.0483 29.2501 47.0393 29.2362 47.0322 29.2212L46.1086 27.6509C45.7823 27.7276 45.461 27.7764 45.1588 27.7744C45.2441 27.9287 45.3074 28.0781 45.3506 28.2015C45.3797 28.2872 45.4008 28.3639 45.4128 28.4246C45.5142 28.9384 45.5554 29.5389 45.5634 30.0985C45.5644 30.1931 45.5654 30.2867 45.5644 30.3793C45.5694 30.3863 45.5734 30.3932 45.5775 30.4002L46.229 31.5085C46.4007 31.3044 46.6467 31.0972 46.9419 30.925C46.9509 30.919 46.961 30.913 46.971 30.908C47.2672 30.7388 47.5684 30.6292 47.8324 30.5824L47.0573 29.264ZM47.5995 28.6078C48.1145 28.5272 48.6898 28.4206 49.1838 28.2493C49.6356 28.092 50.0211 27.8829 50.2159 27.5911C50.0572 27.2357 49.9217 26.8503 49.8123 26.439C49.7661 26.4669 49.7189 26.4938 49.6717 26.5187C49.2069 26.7696 48.725 26.907 48.239 27.0186C47.973 27.0793 47.6437 27.1869 47.2993 27.2994C47.1698 27.3422 47.0383 27.385 46.9057 27.4268L47.6005 28.6088L47.5995 28.6078ZM55.8643 24.0034C56.5962 24.7552 57.283 25.7141 57.8713 26.7079C58.4687 27.7166 58.9676 28.7671 59.313 29.6753C59.312 29.6484 59.31 29.6215 59.308 29.5966C59.2658 29.0141 59.1785 28.4336 59.049 27.8789C58.7839 26.7477 58.3392 25.7241 57.7197 25.0081C57.2197 24.4306 56.6002 24.0562 55.8643 24.0034ZM44.9269 33.3079L46.8917 34.211L45.4791 31.8082C45.471 31.864 45.463 31.9088 45.456 31.9407C45.3425 32.4385 45.1518 32.8817 44.9279 33.3088L44.9269 33.3079ZM43.3958 26.688C43.4631 26.682 43.5293 26.681 43.5926 26.683C43.5845 26.6521 43.5775 26.6223 43.5725 26.5914C43.5183 26.2907 43.5865 25.9949 43.7964 25.7659C43.8004 25.7609 43.8104 25.751 43.8245 25.737C43.8506 25.7111 43.8807 25.6882 43.9138 25.6703C44.1267 25.5518 44.3757 25.3775 44.6488 25.1674L41.0856 19.1072C41.0545 19.1082 41.0203 19.1102 40.9842 19.1142C40.7573 19.1381 40.4762 19.2346 40.1921 19.398C40.19 19.3999 40.187 19.4009 40.184 19.4029C39.8989 19.5672 39.673 19.7654 39.5385 19.9516C39.5174 19.9815 39.4983 20.0094 39.4822 20.0352L43.3938 26.689L43.3958 26.688ZM48.1085 31.0504C48.0774 31.0514 48.0432 31.0534 48.0071 31.0574C47.7822 31.0813 47.5031 31.1769 47.222 31.3372C47.218 31.3402 47.2119 31.3432 47.2069 31.3452C46.9218 31.5095 46.6959 31.7077 46.5614 31.8939C46.5403 31.9237 46.5212 31.9516 46.5051 31.9775L52.512 42.1941C52.6124 42.3335 52.77 42.4012 52.9437 42.4122C53.1897 42.4281 53.4628 42.3435 53.6917 42.1911C53.8774 42.0676 54.028 41.9023 54.1003 41.7151C54.1545 41.5747 54.1636 41.4184 54.1063 41.2541L48.1085 31.0504ZM39.3085 19.4527C39.4722 19.2844 39.683 19.1191 39.927 18.9767C39.932 18.9738 39.937 18.9708 39.9421 18.9688C40.187 18.8284 40.435 18.7278 40.6639 18.67L39.5726 17.6315L39.0596 17.4911L38.9431 18.0318L39.3085 19.4527ZM48.5432 47.0365C48.5001 47.0365 48.4569 47.0296 48.4157 47.0166C48.231 46.9847 48.0593 46.9449 47.9027 46.8981L48.8314 50.228C50.5402 50.216 52.7349 49.9491 55.0772 49.4224C55.8874 49.2402 56.6705 49.035 57.4155 48.815C58.7638 48.4167 59.9556 47.9725 60.9164 47.5225C60.7537 46.7278 60.6011 45.9481 60.4556 45.1804C60.3632 44.6915 60.2748 44.2195 60.1905 43.7624C59.8873 44.0642 59.4747 44.3659 58.9707 44.6566C57.8412 45.3079 56.2197 45.9491 54.3724 46.4261C54.3603 46.4291 54.3483 46.4331 54.3362 46.4361C52.4969 46.9081 50.7731 47.1311 49.4699 47.1082C49.1346 47.1022 48.8243 47.0793 48.5422 47.0375L48.5432 47.0365ZM58.8773 43.7843C59.6263 43.3173 60.0419 42.9021 59.9706 42.6302C59.9656 42.6113 59.9586 42.5934 59.9506 42.5765C59.9425 42.5605 59.9335 42.5466 59.9255 42.5366C59.8281 42.4231 59.6654 42.2708 59.4325 42.1483C59.3291 42.0935 59.2116 42.0457 59.0821 42.0119C59.0048 42.6332 58.9345 43.2287 58.8773 43.7843ZM47.3816 48.0114C46.7632 48.345 46.2883 48.6726 45.9901 48.9783C45.7632 49.2113 45.6548 49.4035 45.6889 49.5399L45.6979 49.5688C45.8375 49.9382 46.6899 50.1543 47.9951 50.213L47.3816 48.0114ZM61.6573 47.149C61.7497 47.0993 61.8381 47.0485 61.9234 46.9987C62.8621 46.45 63.3822 45.9691 63.3089 45.6464C63.3079 45.6434 63.3079 45.6454 63.3049 45.6355C63.2627 45.4961 63.0709 45.3676 62.7567 45.2551C62.3792 45.1197 61.8621 45.03 61.2336 44.9862L61.2427 45.035C61.3782 45.749 61.5158 46.455 61.6563 47.15L61.6573 47.149Z" stroke="white" stroke-width="0.4"/>
</g>
</g>
</svg>
