<svg width="81" height="81" viewBox="0 0 81 81" fill="none" xmlns="http://www.w3.org/2000/svg">
<mask id="mask0_1_482" style="mask-type:luminance" maskUnits="userSpaceOnUse" x="14" y="13" width="54" height="55">
<path d="M67.6566 13.8335H14.3233V67.1668H67.6566V13.8335Z" fill="white"/>
</mask>
<g mask="url(#mask0_1_482)">
<path fill-rule="evenodd" clip-rule="evenodd" d="M20.104 36.1638C20.104 35.8046 20.3952 35.5134 20.7544 35.5134H38.1008C38.46 35.5134 38.7512 35.8046 38.7512 36.1638V66.5164C38.7512 66.8756 38.46 67.1668 38.1008 67.1668H32.318C31.992 67.1668 31.7164 66.9254 31.6733 66.6023L29.4274 49.7554L27.1806 66.6023C27.1375 66.9255 26.8619 67.1668 26.5359 67.1668H20.7544C20.3952 67.1668 20.104 66.8756 20.104 66.5164V36.1638ZM21.4048 36.8142V65.8659H25.9665L28.7829 44.7484C28.826 44.4253 29.1016 44.184 29.4276 44.184C29.7536 44.184 30.0292 44.4253 30.0723 44.7485L32.8875 65.8659H37.4504V36.8142H21.4048Z" fill="white"/>
<path fill-rule="evenodd" clip-rule="evenodd" d="M14.3233 14.4839C14.3233 14.1247 14.6144 13.8335 14.9737 13.8335H24.3681C24.7273 13.8335 25.0185 14.1247 25.0185 14.4839C25.0185 16.9187 26.9926 18.8923 29.4276 18.8923C31.8624 18.8923 33.8348 16.919 33.8348 14.4839C33.8348 14.1247 34.126 13.8335 34.4852 13.8335H43.8803C44.2395 13.8335 44.5307 14.1247 44.5307 14.4839V20.2653C44.5307 20.5313 44.3688 20.7705 44.1218 20.8693L38.7506 23.0167V36.1645C38.7506 36.5237 38.4594 36.8149 38.1002 36.8149H20.7545C20.3953 36.8149 20.1041 36.5237 20.1041 36.1645V23.0179L14.7321 20.8692C14.4852 20.7705 14.3233 20.5313 14.3233 20.2653V14.4839ZM15.6241 15.1343V19.825L20.996 21.9736C21.243 22.0724 21.4049 22.3116 21.4049 22.5775V35.5141H37.4497V22.5762C37.4497 22.3102 37.6117 22.0711 37.8587 21.9723L43.2299 19.8249V15.1343H35.099C34.7764 17.9812 32.3613 20.1931 29.4276 20.1931C26.4943 20.1931 24.0772 17.9814 23.7544 15.1343H15.6241Z" fill="white"/>
<path fill-rule="evenodd" clip-rule="evenodd" d="M49.0211 34.6022C49.0773 34.2929 49.3466 34.0681 49.661 34.0681H61.2232C61.5376 34.0681 61.8069 34.2929 61.8632 34.6022L67.6453 66.3999C67.6798 66.5896 67.6283 66.7849 67.5047 66.933C67.3811 67.081 67.1982 67.1666 67.0054 67.1666H43.8802C43.6873 67.1666 43.5044 67.0811 43.3808 66.933C43.2572 66.7849 43.2057 66.5896 43.2402 66.3999L49.0211 34.6022ZM50.2038 35.3689L44.6595 65.8658H66.226L60.6804 35.3689H50.2038Z" fill="white"/>
<path fill-rule="evenodd" clip-rule="evenodd" d="M46.2581 22.7548C46.3814 22.5969 46.5705 22.5046 46.7708 22.5046C49.8774 22.5046 52.9863 23.6203 55.4439 25.8504C57.7344 23.7723 60.7777 22.5053 64.1144 22.5046C64.3147 22.5046 64.5039 22.5969 64.6271 22.7547C64.7504 22.9126 64.7941 23.1184 64.7455 23.3128L61.8551 34.8763C61.7827 35.1659 61.5226 35.369 61.2241 35.369H49.6618C49.3634 35.369 49.1032 35.1659 49.0309 34.8764L46.1398 23.3128C46.0912 23.1185 46.1349 22.9126 46.2581 22.7548ZM47.6114 23.8357L50.1697 34.0682H60.7163L63.274 23.8356C60.4024 24.0414 57.8197 25.291 55.9041 27.2082C55.7821 27.3303 55.6167 27.3989 55.4441 27.3989C55.2716 27.399 55.1061 27.3305 54.9841 27.2085C52.9288 25.1538 50.2977 24.0295 47.6114 23.8357Z" fill="white"/>
<path fill-rule="evenodd" clip-rule="evenodd" d="M49.7838 14.2337C49.8848 13.9913 50.1216 13.8335 50.3842 13.8335H52.5513C52.7516 13.8335 52.9407 13.9257 53.064 14.0836C53.1872 14.2414 53.2309 14.4473 53.1823 14.6416L50.889 23.8175C50.846 23.9895 50.7347 24.1365 50.5809 24.2244C50.427 24.3124 50.2439 24.3338 50.0739 24.2836C48.997 23.9657 47.8844 23.8062 46.7705 23.8062C46.5531 23.8062 46.35 23.6975 46.2294 23.5165C46.1087 23.3356 46.0865 23.1063 46.1702 22.9056L49.7838 14.2337ZM50.8178 15.1343L47.7313 22.541C48.4224 22.5923 49.1099 22.6991 49.7872 22.8611L51.7184 15.1343H50.8178Z" fill="white"/>
<path fill-rule="evenodd" clip-rule="evenodd" d="M57.8204 14.0836C57.9436 13.9257 58.1328 13.8335 58.333 13.8335H60.5008C60.7634 13.8335 61.0002 13.9913 61.1012 14.2337L64.7155 22.9055C64.7992 23.1063 64.777 23.3355 64.6563 23.5165C64.5357 23.6975 64.3326 23.8062 64.1151 23.8062C63.0007 23.8062 61.8881 23.9657 60.8112 24.2836C60.6412 24.3338 60.4581 24.3124 60.3042 24.2244C60.1503 24.1365 60.039 23.9895 59.996 23.8176L57.7021 14.6416C57.6535 14.4473 57.6971 14.2415 57.8204 14.0836ZM59.1661 15.1343L61.0978 22.8612C61.7752 22.6991 62.4629 22.5923 63.1543 22.541L60.0673 15.1343H59.1661Z" fill="white"/>
</g>
</svg>
