<svg xmlns="http://www.w3.org/2000/svg" width="49" height="49" viewBox="0 0 49 49" fill="none">
  <mask id="mask0_1_103" style="mask-type:luminance" maskUnits="userSpaceOnUse" x="5" y="5" width="39" height="40">
    <path d="M43.66 5.5H5.66V44.5H43.66V5.5Z" fill="white"/>
  </mask>
  <g mask="url(#mask0_1_103)">
    <path d="M43.0267 20.4733H31.3037V17.7753L37.3267 15.512C37.4196 15.4747 37.5031 15.4168 37.571 15.3427C37.6389 15.2686 37.6896 15.1801 37.7193 15.0837C37.7462 14.9865 37.7498 14.8843 37.73 14.7854C37.7102 14.6865 37.6675 14.5937 37.6053 14.5147L31.1643 6.38232C31.0972 6.295 31.0089 6.22672 30.9079 6.18414C30.8069 6.14156 30.6967 6.12613 30.588 6.13937C30.588 6.13937 30.4297 6.13937 30.2523 6.13937H26.997C26.829 6.13937 26.6679 6.20673 26.5492 6.32663C26.4304 6.44652 26.3637 6.60914 26.3637 6.7787C26.3637 10.0585 24.2547 12.7245 21.6833 12.7245C19.112 12.7245 17.0157 10.0777 17.003 6.7787C17.003 6.60914 16.9363 6.44652 16.8175 6.32663C16.6987 6.20673 16.5376 6.13937 16.3697 6.13937H12.6963C12.6017 6.13904 12.5082 6.16012 12.4227 6.20106C12.3372 6.24199 12.2619 6.30175 12.2023 6.37592L5.79932 14.5339C5.73697 14.6127 5.69398 14.7054 5.6739 14.8042C5.65381 14.9031 5.65718 15.0053 5.68375 15.1026C5.71031 15.1999 5.7593 15.2894 5.82673 15.3639C5.89415 15.4384 5.97808 15.4958 6.07166 15.5312L12.063 17.8009V31.1758C12.0638 31.32 12.1129 31.4597 12.2023 31.5722L12.6203 32.0965C12.6793 32.1718 12.7543 32.2328 12.8399 32.2748C12.9254 32.3169 13.0192 32.339 13.1143 32.3394H21.392V43.8603C21.392 44.0298 21.4587 44.1924 21.5775 44.3123C21.6963 44.4322 21.8574 44.4996 22.0253 44.4996H29.2707C29.4128 44.5049 29.5526 44.4617 29.6675 44.3771C29.7824 44.2924 29.8657 44.1712 29.904 44.0329L32.5387 34.4109L35.1797 44.0329C35.218 44.1712 35.3013 44.2924 35.4162 44.3771C35.5311 44.4617 35.6708 44.5049 35.813 44.4996H43.0267C43.1946 44.4996 43.3557 44.4322 43.4745 44.3123C43.5933 44.1924 43.66 44.0298 43.66 43.8603V21.1126C43.66 20.9431 43.5933 20.7805 43.4745 20.6606C43.3557 20.5407 43.1946 20.4733 43.0267 20.4733ZM13.3297 30.952V17.3597C13.3306 17.2299 13.2923 17.1028 13.2199 16.9954C13.1474 16.8881 13.0444 16.8055 12.9243 16.7588L7.33199 14.6426L13.0067 7.41804H15.7933C16.072 11.1006 18.6243 13.9968 21.715 13.9968C24.8057 13.9968 27.3263 11.1262 27.605 7.41804H30.36L36.06 14.617L30.474 16.7332C30.3528 16.7789 30.2483 16.861 30.1747 16.9685C30.1011 17.0759 30.0619 17.2035 30.0623 17.3342V31.0735H13.4183L13.3297 30.952ZM42.3933 43.2209H36.25L33.134 31.8407C33.0957 31.7024 33.0124 31.5812 32.8975 31.4965C32.7826 31.4119 32.6428 31.3687 32.5007 31.374C32.3585 31.3687 32.2187 31.4119 32.1038 31.4965C31.9889 31.5812 31.9056 31.7024 31.8673 31.8407L28.7893 43.2209H22.6587V32.3522H30.2587C30.4037 32.3465 30.5462 32.3117 30.6778 32.2499C30.8094 32.1882 30.9276 32.1006 31.0254 31.9923C31.1232 31.8841 31.1987 31.7573 31.2476 31.6193C31.2964 31.4813 31.3177 31.3349 31.31 31.1886V21.752H42.3933V43.2209Z" fill="#7A3422" stroke="#7A3422" stroke-width="0.7"/>
  </g>
</svg>