<svg width="80" height="81" viewBox="0 0 80 81" fill="none" xmlns="http://www.w3.org/2000/svg">
<mask id="mask0_1_443" style="mask-type:luminance" maskUnits="userSpaceOnUse" x="15" y="11" width="50" height="57">
<path d="M64.7618 11.9287H15.238V67.1668H64.7618V11.9287Z" fill="white"/>
</mask>
<g mask="url(#mask0_1_443)">
<path d="M50.4753 30.273L56.8825 36.7378L64.4276 29.1251L51.9241 16.4986C51.0333 14.8093 49.6059 13.5099 47.9208 12.8168C45.2484 11.7231 42.3936 11.983 40.0968 13.4882C37.7893 11.983 34.9451 11.7231 32.2727 12.8168C30.4696 13.5532 28.9993 14.9609 28.1192 16.7694L15.562 29.4283L22.506 36.4346L29.5144 29.3633C29.8471 34.0414 29.1925 38.7845 27.5933 43.181L20.778 61.9149C20.778 61.9149 28.9993 67.1669 40.0968 67.1669C51.0012 67.1669 59.4155 61.9149 59.4155 61.9149L52.4715 42.8345C51.0119 38.8278 50.3357 34.5287 50.4753 30.273ZM22.506 33.9223L18.052 29.4283L29.5681 17.7981L29.6325 17.6573C30.3085 16.1846 31.4784 15.0476 32.9273 14.452C35.2456 13.5099 37.6604 13.8131 39.5602 15.2641L40.0861 15.6648L40.6119 15.2641C42.5117 13.8131 44.9372 13.499 47.2447 14.452C48.5863 15.0043 49.7132 16.0547 50.4109 17.4299L61.9376 29.1143L56.8718 34.2255L49.0049 26.2879C49.0049 26.2879 48.7579 26.3962 48.7579 33.4133H31.3068C31.3068 25.5407 30.8775 25.4758 30.8775 25.4758L22.506 33.9223ZM40.0968 65.3802C34.1295 65.3802 28.2158 63.8966 22.9461 61.0811L29.2353 43.7874C30.2442 41.026 30.8774 38.1239 31.1672 35.1893H48.9189C49.2194 38.0048 49.8527 40.7878 50.8186 43.4409L57.2368 61.0919C51.9671 63.8966 46.0641 65.3802 40.0968 65.3802Z" fill="white"/>
</g>
</svg>
