<svg xmlns="http://www.w3.org/2000/svg" width="48" height="49" viewBox="0 0 48 49" fill="none">
  <g clip-path="url(#clip0_1_93)">
    <path d="M45.5378 31.5955L42.2257 5.09112C42.1732 4.67373 41.9103 4.36068 41.5423 4.20416L32.132 1.1259C32.132 1.1259 32.132 1.1259 32.0795 1.1259C31.9743 1.07373 31.8692 1.02155 31.7115 1.02155H24.3515C24.2989 1.02155 24.2463 1.02155 24.1938 1.02155C24.0886 1.02155 23.9309 1.02155 23.8258 1.02155H16.308C16.0978 0.969378 15.8875 0.969378 15.7297 1.02155L9.94689 2.95199C9.94689 2.95199 9.94689 2.95199 9.89432 2.95199L6.16175 4.20416C5.79375 4.30851 5.47832 4.67373 5.47832 5.09112L2.11375 31.5955C1.58804 35.7694 2.90232 39.9433 5.68861 43.0737C8.47489 46.2042 12.5229 48.0303 16.7286 48.0303H30.9755C35.1812 48.0303 39.2292 46.2042 42.0155 43.0737C44.7492 39.8911 46.0635 35.7172 45.5378 31.5955ZM27.1377 3.10851H30.8703C31.0806 3.78677 31.1857 4.46503 31.1857 5.19547C31.1857 5.56068 31.1332 5.87373 31.0806 6.23895H27.1377C27.348 5.76938 27.5058 5.24764 27.5058 4.67373C27.5058 4.09982 27.4006 3.57808 27.1377 3.10851ZM30.4497 8.3259C29.2932 10.7781 26.7172 12.4998 23.8258 12.4998C20.9343 12.4998 18.3583 10.7781 17.2018 8.3259H23.8258C23.9309 8.3259 24.0886 8.3259 24.1938 8.3259C24.2463 8.3259 24.2989 8.3259 24.3515 8.3259H30.4497ZM16.7812 3.10851H23.8258C24.7195 3.10851 25.4029 3.78677 25.4029 4.67373C25.4029 5.50851 24.7195 6.23895 23.8258 6.23895H16.5709C16.5183 5.87373 16.4657 5.56068 16.4657 5.19547C16.4657 4.51721 16.5709 3.78677 16.7812 3.10851ZM11.2086 4.7259L14.468 3.63025C14.3629 4.15199 14.3629 4.67373 14.3629 5.19547C14.3629 10.3607 18.6212 14.5868 23.8258 14.5868C29.0303 14.5868 33.2886 10.3607 33.2886 5.19547C33.2886 4.67373 33.236 4.15199 33.1835 3.63025L36.4429 4.7259C36.4429 4.88242 36.4429 5.03895 36.4429 5.19547C36.4429 12.0824 30.7652 17.7172 23.8258 17.7172C16.8863 17.7172 11.2086 12.1346 11.2086 5.19547C11.2086 5.03895 11.2086 4.88242 11.2086 4.7259ZM40.3857 41.665C38.02 44.3781 34.5503 45.8911 30.9229 45.8911H16.7286C13.1012 45.8911 9.68404 44.3259 7.26575 41.665C4.84746 38.952 3.74346 35.4042 4.21661 31.8042L7.47604 5.97808L9.15832 5.40416C9.21089 13.3868 15.7823 19.8042 23.8258 19.8042C31.8692 19.8042 38.4406 13.3868 38.5457 5.40416L40.228 5.97808L43.4875 31.8042C43.908 35.4042 42.804 38.952 40.3857 41.665Z" fill="#7A3422"/>
    <path d="M30.6599 27.6826L28.189 27.3174L27.1376 25.0217C26.5068 23.7174 25.245 22.9348 23.8256 22.9348C22.4062 22.9348 21.1445 23.7174 20.5136 25.0217L19.4096 27.3174L16.9913 27.6826C15.6245 27.8913 14.5205 28.8304 14.0473 30.187C13.5742 31.5435 13.9422 33.0565 14.941 34.0478L16.7285 35.8739L16.3079 38.4304C16.045 39.8913 16.6233 41.3 17.8325 42.1348C18.989 42.9174 20.4085 43.0218 21.6176 42.3435L23.8256 41.1435L26.0336 42.3435C26.5593 42.6565 27.1902 42.7609 27.7685 42.7609C28.5045 42.7609 29.2405 42.5522 29.8713 42.0826C31.0279 41.2478 31.6588 39.8391 31.3959 38.3783L30.9753 35.8217L32.7628 33.9957C33.7616 33.0044 34.1296 31.4913 33.6565 30.1348C33.1833 28.8826 32.0268 27.8913 30.6599 27.6826ZM31.2382 32.587L29.0828 34.7783C28.8199 35.0391 28.7673 35.3522 28.8199 35.6652L29.3456 38.7435C29.4508 39.4218 29.1879 40.0478 28.6622 40.4131C28.4519 40.5696 27.821 40.9348 27.085 40.5174L24.3513 39.0565C24.0359 38.9 23.6679 38.9 23.3525 39.0565L20.6713 40.5174C19.9353 40.9348 19.3045 40.5696 19.0942 40.4131C18.5685 40.0478 18.3056 39.4218 18.4108 38.7435L18.9365 35.6652C18.989 35.3522 18.8839 34.987 18.6736 34.7783L16.5182 32.587C16.045 32.1174 15.8873 31.4913 16.0976 30.8652C16.3079 30.2913 16.781 29.8739 17.3593 29.7696L20.3559 29.3C20.7239 29.2478 20.9868 29.0391 21.1445 28.7261L22.5113 25.9087C22.7742 25.3348 23.2999 25.0217 23.9308 25.0217C24.5616 25.0217 25.0348 25.3348 25.3502 25.9087L26.717 28.7261C26.8748 29.0391 27.1376 29.2478 27.5056 29.3L30.5022 29.7696C31.0805 29.8739 31.5536 30.2391 31.7639 30.8652C31.8165 31.4913 31.6588 32.1174 31.2382 32.587Z" fill="#DB6B2D"/>
  </g>
  <defs>
    <clipPath id="clip0_1_93">
      <rect width="48" height="48" fill="white" transform="translate(0 0.5)"/>
    </clipPath>
  </defs>
</svg>