<svg xmlns="http://www.w3.org/2000/svg" width="48" height="49" viewBox="0 0 48 49" fill="none">
<path d="M44.971 38.5322C44.9699 37.9439 44.7367 37.3801 44.3225 36.9643C43.9083 36.5485 43.3468 36.3146 42.7612 36.3139H39.9251C40.161 35.9702 40.287 35.5625 40.2865 35.1451V24.698C40.2853 24.15 40.0679 23.6249 39.6819 23.2377C39.2959 22.8504 38.7728 22.6327 38.2272 22.6322H31.3323C31.4313 22.4874 31.5113 22.3303 31.5702 22.1649L35.1027 12.3442C35.1949 12.0887 35.236 11.8175 35.2237 11.5461C35.2114 11.2747 35.1459 11.0084 35.031 10.7624C34.9161 10.5164 34.754 10.2956 34.5539 10.1127C34.3539 9.92976 34.12 9.78825 33.8654 9.69627L18.9165 4.2711C18.4029 4.08513 17.8368 4.11148 17.3426 4.34437C16.8483 4.57725 16.4662 4.99763 16.2803 5.51321L13.2412 13.9612L12.2266 5.05121C12.1469 4.34921 11.8128 3.70121 11.2879 3.23076C10.7631 2.76032 10.0842 2.50032 9.38076 2.50033H5.25355C4.96722 2.49531 4.68276 2.54762 4.41678 2.6542C4.15079 2.76079 3.9086 2.91952 3.70434 3.12113C3.50009 3.32274 3.33785 3.56319 3.22711 3.82845C3.11636 4.09371 3.05933 4.37847 3.05933 4.66611C3.05933 4.95375 3.11636 5.2385 3.22711 5.50377C3.33785 5.76903 3.50009 6.00948 3.70434 6.21109C3.9086 6.41269 4.15079 6.57142 4.41678 6.67801C4.68276 6.7846 4.96722 6.8369 5.25355 6.83188H7.54944C7.73718 6.83165 7.91836 6.90125 8.05803 7.02727C8.19769 7.15329 8.28594 7.3268 8.30576 7.51432L11.7778 39.7842C11.3337 40.3642 11.0492 41.0513 10.953 41.7767C10.8567 42.502 10.9521 43.24 11.2295 43.9166C11.5069 44.5933 11.9565 45.1847 12.5334 45.6317C13.1102 46.0786 13.7939 46.3653 14.5159 46.463C15.2379 46.5608 15.9728 46.4661 16.6469 46.1884C17.3209 45.9108 17.9104 45.46 18.3562 44.8813C18.8021 44.3025 19.0885 43.6162 19.1868 42.8911C19.2852 42.1661 19.192 41.4278 18.9165 40.7504H35.2847C35.0273 41.384 34.9289 42.0714 34.9983 42.7522C35.0677 43.433 35.3028 44.0861 35.6828 44.6542C36.0628 45.2222 36.576 45.6876 37.1773 46.0094C37.7785 46.3313 38.4494 46.4996 39.1307 46.4996C39.813 46.4996 40.4848 46.3308 41.0868 46.0081C41.6887 45.6855 42.2023 45.2189 42.5821 44.6496C42.9619 44.0802 43.1963 43.4257 43.2646 42.7439C43.3328 42.062 43.2328 41.3737 42.9734 40.7398C43.5197 40.6864 44.0268 40.4309 44.396 40.0229C44.7652 39.6148 44.9701 39.0835 44.971 38.5322ZM39.3909 24.698V35.1431C39.3911 35.2967 39.3611 35.4489 39.3027 35.5909C39.2443 35.7329 39.1587 35.8619 39.0506 35.9707C38.9425 36.0794 38.8142 36.1657 38.6729 36.2246C38.5316 36.2835 38.3802 36.3138 38.2272 36.3139H22.3328C22.0241 36.3137 21.7281 36.1905 21.5098 35.9714C21.2915 35.7523 21.1687 35.4551 21.1684 35.1451V24.698C21.1687 24.3879 21.2915 24.0906 21.5098 23.8714C21.7281 23.6521 22.024 23.5288 22.3328 23.5285H28.2072V28.6606C28.2071 28.7233 28.2234 28.7849 28.2544 28.8393C28.2854 28.8938 28.3301 28.9391 28.3839 28.9708C28.4388 29.0036 28.5015 29.0207 28.5653 29.0203C28.6268 29.0203 28.6872 29.0044 28.7407 28.9741L30.2797 28.1022L31.8199 28.9741C31.8744 29.0048 31.9359 29.0207 31.9984 29.0202C32.0609 29.0197 32.1222 29.0027 32.1761 28.971C32.2301 28.9393 32.2748 28.894 32.306 28.8395C32.3371 28.7851 32.3534 28.7234 32.3534 28.6606V23.5311H38.2272C38.5354 23.5314 38.8309 23.6544 39.049 23.8731C39.2671 24.0918 39.3901 24.3884 39.3909 24.698ZM28.9234 23.5285H29.5904C29.6048 23.5285 29.6199 23.5285 29.6344 23.5285C29.6469 23.5291 29.6594 23.5291 29.6718 23.5285H31.6372V28.0448L30.4544 27.3756C30.4006 27.3454 30.34 27.3296 30.2783 27.3296C30.2167 27.3296 30.1561 27.3454 30.1022 27.3756L28.9195 28.0448L28.9234 23.5285ZM27.3635 8.29245L25.8357 12.5395L24.9539 11.508C24.9204 11.4688 24.8788 11.4373 24.8321 11.4157C24.7854 11.394 24.7346 11.3827 24.6832 11.3826C24.6629 11.3825 24.6427 11.384 24.6227 11.3872L23.2862 11.6129L24.8139 7.36582L27.3635 8.29245ZM13.5895 15.6395L17.122 5.82209C17.1737 5.67759 17.2533 5.54476 17.3562 5.43122C17.4591 5.31767 17.5833 5.22564 17.7217 5.1604C17.8601 5.09517 18.0099 5.058 18.1626 5.05105C18.3153 5.04409 18.4679 5.06747 18.6116 5.11985L24.1358 7.12492L22.4004 11.9508C22.3791 12.0098 22.3735 12.0733 22.3842 12.1351C22.3948 12.1969 22.4214 12.2549 22.4613 12.3032C22.5011 12.3515 22.5529 12.3885 22.6114 12.4105C22.6698 12.4325 22.733 12.4388 22.7947 12.4286L24.538 12.1336L25.6925 13.478C25.7262 13.5171 25.7678 13.5485 25.8147 13.57C25.8615 13.5916 25.9124 13.6027 25.9639 13.6028C25.9859 13.6027 26.0078 13.6009 26.0296 13.5975C26.0912 13.5859 26.1488 13.5584 26.1966 13.5177C26.2444 13.4769 26.2808 13.4244 26.3023 13.3652L28.0376 8.53929L33.5618 10.5417C33.8522 10.6473 34.0889 10.8644 34.22 11.1452C34.3511 11.426 34.3658 11.7475 34.261 12.0393L30.7278 21.86C30.6762 22.0047 30.5967 22.1377 30.4938 22.2514C30.3909 22.3651 30.2666 22.4572 30.1281 22.5225C29.9896 22.5877 29.8396 22.6248 29.6867 22.6317C29.5339 22.6385 29.3812 22.6149 29.2375 22.5622L14.2886 17.1371C14.1448 17.0848 14.0126 17.0047 13.8997 16.9012C13.7867 16.7977 13.6951 16.6728 13.6302 16.5337C13.5653 16.3947 13.5283 16.2441 13.5213 16.0907C13.5143 15.9373 13.5375 15.784 13.5895 15.6395ZM13.9837 17.9825L26.7938 22.6322H22.3321C21.7866 22.6331 21.2637 22.8509 20.8778 23.238C20.4919 23.6252 20.2743 24.1501 20.2728 24.698V35.1431C20.2718 35.5613 20.3981 35.9698 20.6348 36.3139H16.1009C16.0129 36.314 15.9279 36.2814 15.8623 36.2225C15.7967 36.1635 15.7551 36.0823 15.7454 35.9945L13.6801 17.8446C13.7776 17.8989 13.8786 17.9451 13.9837 17.9825ZM18.3291 42.3265C18.3309 43.1247 18.0426 43.8961 17.5183 44.496C16.9941 45.0959 16.2699 45.483 15.4817 45.5847C14.6934 45.6864 13.8954 45.4957 13.2372 45.0483C12.579 44.601 12.106 43.9278 11.9069 43.155C11.7078 42.3823 11.7963 41.5631 12.1558 40.8512C12.5153 40.1393 13.1211 39.5837 13.8594 39.2886C14.5978 38.9935 15.4181 38.9791 16.1662 39.2483C16.9144 39.5174 17.539 40.0515 17.923 40.7504C18.1897 41.2325 18.3295 41.775 18.3291 42.3265ZM39.1307 45.6007C38.4863 45.6006 37.8564 45.4085 37.3207 45.0489C36.7849 44.6892 36.3674 44.1781 36.1208 43.5801C35.8742 42.9821 35.8097 42.3242 35.9354 41.6894C36.0611 41.0546 36.3714 40.4714 36.827 40.0137C37.2826 39.556 37.8631 39.2443 38.4951 39.1179C39.1271 38.9915 39.7822 39.0562 40.3776 39.3037C40.973 39.5512 41.482 39.9705 41.8401 40.5086C42.1983 41.0466 42.3896 41.6792 42.3899 42.3265C42.389 43.1945 42.0454 44.0267 41.4344 44.6405C40.8234 45.2543 39.9949 45.5997 39.1307 45.6007ZM42.7612 39.8515H42.4734C42.0877 39.3252 41.5842 38.8974 41.0037 38.6026C40.4231 38.3078 39.7816 38.1541 39.131 38.1541C38.4805 38.1541 37.839 38.3078 37.2584 38.6026C36.6778 38.8974 36.1744 39.3252 35.7887 39.8515H18.4125C18.0884 39.409 17.6803 39.0353 17.2119 38.7518C16.7434 38.4683 16.2237 38.2807 15.6828 38.1996C15.1418 38.1186 14.5903 38.1458 14.0599 38.2797C13.5294 38.4135 13.0306 38.6514 12.592 38.9796L9.19612 7.4173C9.15263 7.00924 8.96036 6.63177 8.65633 6.3576C8.3523 6.08342 7.95803 5.93193 7.54944 5.93231H5.25355C4.91912 5.93231 4.59839 5.79887 4.36192 5.56135C4.12544 5.32383 3.99259 5.00168 3.99259 4.66578C3.99259 4.32987 4.12544 4.00772 4.36192 3.7702C4.59839 3.53268 4.91912 3.39924 5.25355 3.39924H9.38076C9.86449 3.39966 10.3312 3.5787 10.692 3.9023C11.0528 4.2259 11.2826 4.67146 11.3376 5.15417L14.8583 36.0954C14.8934 36.4031 15.0401 36.687 15.2704 36.8929C15.5007 37.0988 15.7985 37.2122 16.1068 37.2115H42.7612C43.1097 37.2115 43.444 37.3506 43.6904 37.5981C43.9369 37.8457 44.0753 38.1814 44.0753 38.5315C44.0753 38.8816 43.9369 39.2173 43.6904 39.4649C43.444 39.7124 43.1097 39.8515 42.7612 39.8515Z" fill="#7A3422" stroke="#7A3422" stroke-width="0.6"/>
<path d="M39.3777 40.7504C39.2959 40.7379 39.2133 40.7317 39.1306 40.7319C38.7219 40.7336 38.3296 40.8942 38.0362 41.1799C37.7427 41.4657 37.5708 41.8544 37.5564 42.2647C37.542 42.675 37.6864 43.075 37.9592 43.3807C38.2319 43.6864 38.612 43.8742 39.0196 43.9047C39.4272 43.9352 39.8307 43.806 40.1456 43.5442C40.4604 43.2824 40.6622 42.9084 40.7085 42.5005C40.7548 42.0926 40.6421 41.6825 40.394 41.3563C40.1459 41.03 39.7816 40.8129 39.3777 40.7504Z" fill="#DB6B2D"/>
<path d="M15.3163 40.7504C15.1529 40.7258 14.9868 40.7258 14.8235 40.7504C14.4285 40.8127 14.0714 41.0224 13.8236 41.3375C13.5758 41.6526 13.4554 42.0501 13.4865 42.4504C13.5176 42.8508 13.6979 43.2247 13.9914 43.4974C14.285 43.77 14.6701 43.9215 15.0699 43.9215C15.4697 43.9215 15.8548 43.77 16.1483 43.4974C16.4418 43.2247 16.6222 42.8508 16.6533 42.4504C16.6844 42.0501 16.564 41.6526 16.3162 41.3375C16.0683 41.0224 15.7113 40.8127 15.3163 40.7504Z" fill="#DB6B2D"/>
<path d="M33.5489 35.489H37.7017C37.9044 35.489 38.0987 35.4081 38.2421 35.2642C38.3854 35.1202 38.4659 34.925 38.4659 34.7214C38.4659 34.5179 38.3854 34.3226 38.2421 34.1787C38.0987 34.0347 37.9044 33.9539 37.7017 33.9539H33.5489C33.3462 33.9539 33.1518 34.0347 33.0085 34.1787C32.8652 34.3226 32.7847 34.5179 32.7847 34.7214C32.7847 34.925 32.8652 35.1202 33.0085 35.2642C33.1518 35.4081 33.3462 35.489 33.5489 35.489Z" fill="#DB6B2D"/>
<path d="M25.115 20.1909L29.0175 21.6073C29.1119 21.6416 29.2122 21.6569 29.3125 21.6522C29.4128 21.6476 29.5112 21.6231 29.6021 21.5802C29.693 21.5372 29.7746 21.4767 29.8421 21.4021C29.9097 21.3275 29.962 21.2402 29.9959 21.1453C30.0301 21.0504 30.0453 20.9497 30.0406 20.849C30.036 20.7482 30.0116 20.6493 29.9689 20.5581C29.9262 20.4668 29.8659 20.3848 29.7916 20.317C29.7173 20.2491 29.6305 20.1966 29.5359 20.1625L25.6334 18.7462C25.4439 18.681 25.2364 18.6933 25.0557 18.7803C24.875 18.8673 24.7355 19.0221 24.6674 19.2113C24.5992 19.4006 24.6078 19.6092 24.6913 19.7922C24.7748 19.9751 24.9265 20.1179 25.1137 20.1896L25.115 20.1909Z" fill="#DB6B2D"/>
</svg>