<svg xmlns="http://www.w3.org/2000/svg" width="49" height="49" viewBox="0 0 49 49" fill="none">
<g clip-path="url(#clip0_1_57)">
<mask id="mask0_1_57" style="mask-type:luminance" maskUnits="userSpaceOnUse" x="0" y="0" width="49" height="49">
<path d="M48.66 0.5H0.660004V48.5H48.66V0.5Z" fill="white"/>
</mask>
<g mask="url(#mask0_1_57)">
<path d="M39.4399 34.8726L32.0462 18.9994C31.2759 17.3571 30.0364 16.1857 28.3639 15.5194L23.5416 13.588L23.4724 13.5149C22.6667 12.6394 21.6273 12.1371 20.4473 12.04V0.921143C20.4473 0.688 20.2593 0.5 20.0267 0.5C19.7947 0.5 19.6061 0.688 19.6061 0.921143V12.04C19.2416 12.0686 18.8913 12.1326 18.5593 12.2377C18.0873 12.3017 17.6187 12.436 17.165 12.644C15.9376 13.2183 15.1004 14.1651 14.6787 15.4577L14.6421 15.5691L11.0993 19.3429C9.85986 20.6583 9.23129 22.244 9.23129 24.0566V41.5743C9.23129 45.3703 12.3193 48.4589 16.1164 48.4589H23.9387C24.8427 48.4589 25.7039 48.2789 26.4959 47.96C27.377 47.9143 28.229 47.7057 29.0302 47.3331L36.1136 44.0309C37.7799 43.256 39.0439 41.8737 39.6742 40.1411C40.3027 38.408 40.2199 36.536 39.4399 34.8726ZM20.0261 20.612C20.2587 20.612 20.4467 20.424 20.4467 20.192V18.1029C21.421 18.2989 22.157 19.1606 22.157 20.192C22.157 21.3663 21.201 22.3229 20.0261 22.3229C18.8513 22.3229 17.8953 21.3657 17.8953 20.192C17.8953 19.16 18.6313 18.2989 19.6056 18.1029V20.192C19.605 20.424 19.7936 20.612 20.0261 20.612ZM16.1153 47.616C12.7827 47.616 10.0719 44.9057 10.0719 41.5743V24.0566C10.0719 22.4657 10.6233 21.0737 11.7107 19.9194L17.185 14.0869C17.8484 13.3783 18.661 12.9731 19.605 12.8817V17.2526C18.165 17.4577 17.053 18.696 17.053 20.1926C17.053 21.8314 18.3873 23.1646 20.0256 23.1646C21.665 23.1646 22.9981 21.8314 22.9981 20.1926C22.9981 18.6954 21.8861 17.4583 20.4461 17.2526V12.8817C21.3919 12.9731 22.2004 13.3771 22.8547 14.088L28.3421 19.9194C29.429 21.0749 29.9804 22.4657 29.9804 24.0566V41.5743C29.9804 44.9057 27.2701 47.616 23.9376 47.616H16.1153ZM38.8822 39.8531C38.3284 41.3749 37.2193 42.588 35.757 43.2669L28.673 46.5709C28.6644 46.5743 28.6559 46.5777 28.6473 46.5811C29.9827 45.3246 30.8216 43.548 30.8216 41.5743V24.0566C30.8216 22.244 30.1936 20.6594 28.9547 19.3429L24.9096 15.0429L28.0507 16.3023C29.5399 16.8954 30.597 17.8954 31.2839 19.3566L38.677 35.2291C39.3627 36.6886 39.4347 38.3314 38.8822 39.8531Z" fill="#7A3422" stroke="#7A3422" stroke-width="1.1"/>
</g>
</g>
<defs>
<clipPath id="clip0_1_57">
<rect width="48" height="48" fill="white" transform="translate(0.660004 0.5)"/>
</clipPath>
</defs>
</svg>