<svg  viewBox="0 0 172 40" fill="none" xmlns="http://www.w3.org/2000/svg"><path d="M0.691659 7.33634C1.20865 4.95684 2.13281 3.20543 2.84036 1.48303C3.06263 0.742102 3.70314 -0.0343948 4.17401 0.00117775C4.64493 0.036754 4.91493 0.816212 5.1372 1.40895C9.95321 13.1896 18.622 17.6352 30.9955 14.7456C34.5519 13.9306 38.1083 12.671 41.6647 11.7819C44.1839 11.1891 46.7031 11.1892 48.4072 13.4119C50.1854 15.7088 49.889 18.2279 48.8517 20.7471C47.2217 24.5999 44.4803 26.9708 40.257 27.4154C36.1078 27.8599 32.7737 26.4522 30.3286 23.0439C25.6608 16.672 25.6608 16.672 20.9189 23.0439C16.3992 29.1195 7.95271 29.0454 3.65536 22.8217C2.39578 21.0435 1.39874 19.431 0.691659 16.9684C-0.346402 13.3529 -0.106965 11.0121 0.691659 7.33634Z" fill="#D14E40"></path><path d="M15.2134 35.0468C22.2522 37.4919 28.2537 36.8991 34.0329 33.639C35.5888 32.7499 37.2188 32.9722 38.182 34.6764C38.9229 35.9359 38.1821 37.0473 37.1448 37.8623C32.8474 41.1965 18.918 40.9001 15.2134 35.0468Z" fill="#D25545"></path><path d="M67.3522 10.3765C67.5262 10.3951 67.6941 10.4199 67.8681 10.4385C68.9871 10.5439 70.0688 10.8105 71.0945 11.2817C71.7534 11.5855 72.3564 11.9761 72.8165 12.5403C73.4878 13.3587 73.606 14.2701 73.2392 15.2497C73.0154 15.8573 72.6548 16.3781 72.2508 16.8803C72.2383 16.8927 72.2197 16.9051 72.2197 16.9051C72.0332 16.5951 71.8778 16.2727 71.6664 15.9813C71.1256 15.2311 70.3858 14.7227 69.5466 14.3507C68.7944 14.0159 67.9987 13.8237 67.1781 13.7493C65.9845 13.6439 64.8158 13.7555 63.7217 14.2763C62.1055 15.0389 61.1108 16.3285 60.6011 18.0149C60.3462 18.8705 60.2902 19.7447 60.3897 20.6313C60.5202 21.8341 60.9181 22.9377 61.6952 23.8925C62.522 24.9155 63.5912 25.5541 64.8594 25.8827C65.6116 26.0749 66.3824 26.1245 67.147 26.0315C68.2909 25.8951 69.329 25.4797 70.2304 24.7543C70.6904 24.3885 71.1131 23.9793 71.5545 23.5887C71.598 23.5453 71.6353 23.4957 71.6851 23.4275C72.4621 24.2645 73.2143 25.0767 73.9727 25.8951C72.7046 27.1785 71.3432 28.3069 69.6088 28.8959C68.956 29.1191 68.2909 29.2741 67.607 29.3175C66.9916 29.3547 66.3762 29.4043 65.7607 29.3733C63.7839 29.2679 61.9625 28.6851 60.4083 27.4203C58.904 26.1989 57.9466 24.6179 57.4058 22.7703C57.2069 22.0883 57.0825 21.3939 57.0328 20.6809C57.0266 20.6375 57.0141 20.5941 57.0017 20.5445C57.0017 20.0671 57.0017 19.5959 57.0017 19.1185C57.0328 18.8953 57.0639 18.6721 57.095 18.4489C57.2379 17.3019 57.5736 16.2107 58.1145 15.1877C58.7548 13.9911 59.5878 12.9557 60.6943 12.1497C62.3044 10.9779 64.1507 10.5253 66.1027 10.4075C66.1959 10.4013 66.2891 10.3889 66.3886 10.3765C66.7119 10.3765 67.0289 10.3765 67.3522 10.3765Z" fill="#1A202C"></path><path d="M129.213 18.9509C129.735 19.1679 130.207 19.4283 130.636 19.7693C131.556 20.5133 132.147 21.4681 132.371 22.6213C132.669 24.1651 132.358 25.5911 131.413 26.8559C130.642 27.8851 129.61 28.5299 128.355 28.8151C127.578 28.9887 126.794 29.0383 125.999 29.0383C123.96 29.0383 121.914 29.0383 119.875 29.0383C119.832 29.0383 119.795 29.0383 119.726 29.0383C119.726 28.9763 119.726 28.9205 119.726 28.8647C119.726 23.8117 119.72 18.7587 119.732 13.7057C119.732 12.9927 119.869 12.3045 120.304 11.7031C120.696 11.1637 121.243 10.8661 121.877 10.7173C122.076 10.6739 122.287 10.6491 122.493 10.6491C123.717 10.6429 124.948 10.6243 126.173 10.6553C127.571 10.6925 128.777 11.2195 129.76 12.2301C130.431 12.9307 130.879 13.7491 131.028 14.7039C131.283 16.4027 130.754 17.7977 129.356 18.8331C129.312 18.8827 129.268 18.9075 129.213 18.9509ZM123.214 25.7523C123.58 25.7523 123.922 25.7523 124.27 25.7523C125.072 25.7585 125.874 25.7771 126.67 25.6593C127.161 25.5911 127.64 25.4609 128.062 25.1881C128.821 24.6983 129.101 23.9853 128.976 23.2227C128.833 22.3485 128.299 21.7409 127.515 21.3441C126.999 21.0837 126.446 21.0031 125.88 20.9969C125.128 20.9845 124.37 20.9845 123.773 21.6603C123.655 21.2077 123.518 20.7985 123.45 20.3769C123.326 19.6143 123.556 18.9757 124.196 18.5045C124.712 18.1325 125.302 17.9341 125.918 17.8225C126.539 17.7109 127.055 17.4629 127.391 16.9111C127.839 16.1733 127.801 15.2371 127.111 14.6357C126.67 14.2513 126.142 14.0715 125.57 14.0405C125.016 14.0095 124.463 14.0157 123.91 14.0033C123.68 13.9971 123.45 14.0033 123.214 14.0033C123.214 17.9341 123.214 21.8153 123.214 25.7523Z" fill="#1A202C"></path><path d="M97.931 20.2654C97.6824 20.191 97.4337 20.0856 97.1788 20.0484C96.265 19.8996 95.3076 20.4328 94.916 21.2698C94.6922 21.7596 94.6736 22.2742 94.7233 22.795C94.7855 23.3902 94.9471 23.9544 95.2579 24.469C95.8174 25.3866 96.6318 25.9322 97.6824 26.1244C98.82 26.329 99.8581 26.0996 100.766 25.3742C101.394 24.872 101.804 24.2148 101.99 23.4336C102.276 22.2246 102.196 21.059 101.543 19.9802C100.996 19.075 100.175 18.548 99.1308 18.3682C98.6521 18.2814 98.1735 18.3 97.701 18.3868C97.6575 18.393 97.5891 18.3682 97.558 18.3372C96.9799 17.7172 96.2588 17.401 95.4258 17.2894C94.5803 17.1716 93.7722 17.3018 93.0138 17.6986C92.9951 17.711 92.9702 17.7172 92.9267 17.6924C93.1381 17.4754 93.337 17.246 93.5546 17.0414C94.3317 16.316 95.2144 15.7766 96.2277 15.448C97.1477 15.1504 98.0926 15.0636 99.0562 15.1504C100.523 15.2806 101.829 15.7952 102.966 16.7252C104.259 17.7792 105.092 19.137 105.459 20.7614C105.627 21.5054 105.671 22.2618 105.584 23.0182C105.403 24.5124 104.819 25.8392 103.824 26.9738C102.718 28.2324 101.319 28.9702 99.6778 29.2802C99.0873 29.3918 98.4843 29.4166 97.8875 29.367C96.4826 29.2554 95.2082 28.7904 94.0892 27.9224C92.7464 26.887 91.8761 25.5354 91.4721 23.8986C91.2669 23.0678 91.1985 22.2184 91.3291 21.369C91.3975 20.9474 91.4596 20.5134 91.5964 20.1042C91.9197 19.0874 92.6656 18.4674 93.6789 18.1574C94.7357 17.8412 95.7615 17.9156 96.725 18.4736C97.4213 18.8766 97.8315 19.4842 97.931 20.2654Z" fill="#1A202C"></path><path d="M77.2174 17.68C77.522 17.3886 77.808 17.0724 78.125 16.7996C78.9456 16.099 79.8781 15.5968 80.9349 15.3302C81.7368 15.1256 82.5449 15.076 83.3655 15.1504C84.6275 15.262 85.7899 15.665 86.8219 16.3966C88.4195 17.525 89.4328 19.044 89.7872 20.966C90.2037 23.2352 89.6007 25.244 88.1087 26.9738C86.996 28.2634 85.5662 29.0136 83.8877 29.2802C81.9606 29.5902 80.1827 29.1996 78.5912 28.065C77.062 26.9738 76.1109 25.492 75.7192 23.6568C75.483 22.5532 75.5265 21.462 75.8063 20.3708C76.0798 19.323 76.7325 18.6162 77.7334 18.238C78.8586 17.8164 79.9713 17.866 81.0281 18.4612C81.7306 18.858 82.1409 19.5028 82.2341 20.2778C82.0538 20.2096 81.886 20.1166 81.6995 20.0732C80.5432 19.7818 79.3061 20.5258 79.0761 21.6976C78.7156 23.5328 79.704 25.7152 81.9979 26.1244C83.1479 26.329 84.1985 26.0872 85.1061 25.3494C85.7651 24.8162 86.1692 24.1032 86.337 23.2786C86.5421 22.268 86.4924 21.2698 86.0324 20.3212C85.504 19.23 84.6275 18.5728 83.4215 18.362C82.949 18.2752 82.4766 18.3 82.0041 18.3806C81.9606 18.3868 81.8922 18.3682 81.8611 18.3372C81.0778 17.5064 80.0894 17.215 78.9767 17.2522C78.3799 17.2708 77.8204 17.4258 77.292 17.711C77.2796 17.7172 77.2671 17.7172 77.2485 17.7172C77.2423 17.7048 77.2298 17.6924 77.2174 17.68Z" fill="#1A202C"></path><path d="M145.861 17.6925C146.035 17.5065 146.203 17.3143 146.389 17.1345C147.117 16.4339 147.937 15.8945 148.888 15.5411C149.895 15.1691 150.927 15.0513 151.99 15.1443C153.457 15.2683 154.763 15.7891 155.9 16.7191C157.193 17.7793 158.026 19.1309 158.399 20.7677C158.542 21.4063 158.592 22.0511 158.549 22.7021C158.462 23.9979 158.039 25.1945 157.305 26.2671C156.23 27.8419 154.738 28.8091 152.879 29.2245C152.202 29.3733 151.518 29.4229 150.828 29.3671C149.323 29.2493 147.974 28.7223 146.812 27.7551C145.544 26.6949 144.729 25.3495 144.369 23.7437C144.195 22.9687 144.151 22.1875 144.257 21.3939C144.319 20.8979 144.4 20.4081 144.593 19.9431C144.972 19.0131 145.687 18.4365 146.638 18.1575C147.72 17.8413 148.764 17.9219 149.734 18.5109C150.38 18.9015 150.766 19.4905 150.878 20.2407C150.878 20.2593 150.878 20.2779 150.871 20.3151C150.536 20.1043 150.175 20.0113 149.796 20.0175C148.727 20.0423 147.794 20.8545 147.682 21.9085C147.545 23.1857 147.875 24.3203 148.82 25.2317C149.386 25.7711 150.069 26.0687 150.846 26.1617C151.829 26.2795 152.736 26.0811 153.544 25.5045C154.315 24.9589 154.781 24.2025 154.974 23.2849C155.192 22.2495 155.13 21.2327 154.645 20.2779C154.104 19.2053 153.24 18.5729 152.052 18.3683C151.58 18.2877 151.12 18.3063 150.654 18.3869C150.604 18.3931 150.529 18.3745 150.498 18.3373C149.989 17.7731 149.342 17.4631 148.615 17.3267C147.682 17.1469 146.787 17.2585 145.948 17.7049C145.929 17.7111 145.917 17.7173 145.898 17.7235C145.873 17.7111 145.867 17.7049 145.861 17.6925Z" fill="#1A202C"></path><path d="M162.185 26.9614C162.893 26.2051 163.59 25.4549 164.267 24.7295C164.622 25.0271 164.957 25.3433 165.33 25.6037C165.908 26.0066 166.555 26.2361 167.27 26.2113C167.624 26.1989 167.96 26.1121 168.252 25.8889C168.594 25.6285 168.693 25.2317 168.507 24.8411C168.314 24.4381 167.991 24.1591 167.612 23.9483C167.052 23.6321 166.474 23.3531 165.908 23.0431C165.119 22.6153 164.361 22.1565 163.733 21.4993C162.956 20.6871 162.595 19.7261 162.707 18.6039C162.844 17.2399 163.577 16.2913 164.765 15.6651C165.703 15.1691 166.704 15.0327 167.749 15.1381C168.463 15.2125 169.135 15.3861 169.732 15.8015C170.391 16.2541 170.782 16.8679 170.782 17.6863C170.788 18.5171 170.266 19.2735 169.495 19.5897C169.384 19.4161 169.284 19.2363 169.16 19.0813C168.749 18.5667 168.19 18.3187 167.556 18.2071C167.189 18.1451 166.822 18.1451 166.48 18.3001C166.201 18.4241 165.983 18.6163 165.933 18.9387C165.877 19.2735 166.045 19.5215 166.3 19.6827C166.735 19.9493 167.183 20.1849 167.643 20.4081C168.463 20.8049 169.296 21.1831 170.024 21.7349C170.851 22.3611 171.485 23.1237 171.69 24.1653C171.982 25.6471 171.665 26.9676 170.527 28.0216C169.844 28.654 169.011 29.0198 168.097 29.1872C166.418 29.4848 164.87 29.1624 163.465 28.1952C162.974 27.8604 162.558 27.445 162.185 26.9614Z" fill="#1A202C"></path><path d="M138.282 29.0322C137.132 29.0322 136.001 29.0322 134.863 29.0322C134.863 24.4814 134.863 19.9368 134.863 15.3798C135.845 15.3798 136.821 15.3798 137.81 15.3798C137.81 15.9254 137.81 16.4648 137.81 17.0042C137.822 17.0104 137.835 17.0104 137.841 17.0166C137.866 16.9732 137.891 16.9298 137.916 16.8864C138.338 16.1362 138.879 15.4976 139.718 15.2248C140.794 14.8714 141.813 15.0016 142.677 15.7828C143.069 16.1362 143.299 16.595 143.399 17.1158C143.517 17.7606 143.417 18.362 143.007 18.8952C142.92 19.013 142.82 19.1246 142.702 19.261C142.454 18.6782 142.056 18.3868 141.503 18.3C140.825 18.1946 140.216 18.3806 139.662 18.7588C138.923 19.261 138.494 19.974 138.382 20.8544C138.307 21.4496 138.289 22.0572 138.289 22.6586C138.276 24.717 138.282 26.7692 138.282 28.8276C138.282 28.8958 138.282 28.9578 138.282 29.0322Z" fill="#1A202C"></path><path d="M110.78 29.0324C109.674 29.0324 108.58 29.0324 107.473 29.0324C107.467 28.9766 107.467 28.9208 107.467 28.865C107.467 23.657 107.467 18.449 107.467 13.241C107.467 12.1374 108.132 11.2508 109.233 10.8664C109.711 10.699 110.351 10.6122 110.78 10.6556C110.78 16.7812 110.78 22.9006 110.78 29.0324Z" fill="#1A202C"></path><path d="M159.531 17.866C159.6 17.5312 159.687 17.215 159.736 16.8926C159.854 16.1734 159.687 15.5162 159.245 14.9272C159.028 14.6358 158.785 14.3568 158.599 14.0406C157.84 12.7634 158.68 11.2816 159.96 10.9963C161.073 10.7483 162.136 11.4055 162.391 12.4906C162.54 13.1354 162.453 13.774 162.26 14.394C161.918 15.5038 161.359 16.4772 160.489 17.2584C160.203 17.5126 159.886 17.7296 159.531 17.866Z" fill="#1A202C"></path></svg>