<svg xmlns="http://www.w3.org/2000/svg" width="49" height="49" viewBox="0 0 49 49" fill="none">
  <g clip-path="url(#clip0_1_116)">
    <path d="M47.9807 24.548C47.9809 24.4187 47.955 24.2906 47.9045 24.1715C47.8541 24.0524 47.78 23.9447 47.6869 23.8549L43.1557 19.4908L44.9221 13.4543C44.9585 13.33 44.9694 13.1997 44.9542 13.0711C44.9389 12.9425 44.8978 12.8184 44.8334 12.7061C44.7689 12.5938 44.6824 12.4957 44.579 12.4177C44.4756 12.3398 44.3575 12.2835 44.2318 12.2524L38.1262 10.7394L36.6373 4.62806C36.6066 4.50238 36.5509 4.38419 36.4734 4.28059C36.3959 4.177 36.2983 4.09013 36.1864 4.02521C36.0745 3.9603 35.9506 3.91867 35.8222 3.90282C35.6938 3.88698 35.5635 3.89725 35.4392 3.93302L29.3912 5.67542L25.0501 1.12599C24.9605 1.0327 24.853 0.95838 24.7341 0.907423C24.6152 0.856466 24.4873 0.829915 24.3579 0.829346C24.2289 0.829342 24.1012 0.855355 23.9824 0.905828C23.8636 0.956301 23.7563 1.0302 23.6667 1.12311L19.3026 5.6543L13.2661 3.8879C13.1418 3.85147 13.0115 3.84055 12.8829 3.8558C12.7543 3.87104 12.6302 3.91215 12.5179 3.97663C12.4056 4.04111 12.3075 4.12764 12.2296 4.23101C12.1516 4.33439 12.0953 4.45246 12.0642 4.57814L10.5512 10.6837L4.43793 12.1727C4.31225 12.2033 4.19406 12.2591 4.09046 12.3366C3.98686 12.4141 3.9 12.5117 3.83508 12.6236C3.77016 12.7355 3.72853 12.8594 3.71269 12.9878C3.69685 13.1162 3.70712 13.2464 3.74289 13.3708L5.48529 19.4188L0.935847 23.7599C0.84249 23.8495 0.768208 23.957 0.717465 24.076C0.666722 24.1951 0.640564 24.3231 0.640564 24.4525C0.640564 24.5819 0.666722 24.71 0.717465 24.829C0.768208 24.948 0.84249 25.0556 0.935847 25.1452L5.46705 29.5093L3.70065 35.5458C3.66422 35.6701 3.65329 35.8004 3.66854 35.929C3.68379 36.0576 3.72489 36.1817 3.78937 36.294C3.85386 36.4063 3.94039 36.5044 4.04376 36.5823C4.14713 36.6603 4.26521 36.7166 4.39089 36.7477L10.4965 38.2607L11.9826 44.372C12.0132 44.4977 12.069 44.6159 12.1465 44.7195C12.224 44.8231 12.3216 44.91 12.4335 44.9749C12.5454 45.0398 12.6693 45.0814 12.7977 45.0973C12.926 45.1131 13.0563 45.1029 13.1806 45.0671L19.2286 43.3247L23.5736 47.8741C23.6632 47.9674 23.7707 48.0417 23.8896 48.0927C24.0085 48.1436 24.1364 48.1702 24.2658 48.1708C24.3948 48.1708 24.5225 48.1448 24.6413 48.0943C24.76 48.0438 24.8674 47.9699 24.957 47.877L29.3211 43.3458L35.3576 45.1122C35.4819 45.1486 35.6122 45.1596 35.7408 45.1443C35.8694 45.1291 35.9935 45.088 36.1058 45.0235C36.2181 44.959 36.3162 44.8725 36.3941 44.7691C36.4721 44.6657 36.5284 44.5476 36.5595 44.422L38.0725 38.3164L44.1819 36.8274C44.3076 36.7967 44.4258 36.741 44.5294 36.6635C44.633 36.586 44.7199 36.4884 44.7848 36.3765C44.8497 36.2646 44.8913 36.1407 44.9072 36.0123C44.923 35.8839 44.9127 35.7536 44.877 35.6293L43.1346 29.5813L47.684 25.2364C47.7768 25.1472 47.8509 25.0404 47.9018 24.9222C47.9528 24.8039 47.9796 24.6768 47.9807 24.548ZM41.3883 28.5983C41.2616 28.7194 41.1704 28.8729 41.1247 29.0421C41.0791 29.2113 41.0806 29.3898 41.1291 29.5583L42.7554 35.1992L37.051 36.5884C36.8809 36.63 36.7254 36.7174 36.6013 36.8411C36.4773 36.9648 36.3895 37.1201 36.3474 37.2901L34.9342 42.9887L29.3019 41.3394C29.1338 41.2913 28.9557 41.2897 28.7867 41.3346C28.6177 41.3796 28.464 41.4695 28.3419 41.5948L24.2696 45.8236L20.2117 41.5784C20.122 41.4847 20.0143 41.41 19.895 41.359C19.7757 41.3081 19.6473 41.2818 19.5176 41.2818C19.4277 41.2819 19.3382 41.2945 19.2517 41.3192L13.6107 42.9455L12.2216 37.2412C12.18 37.071 12.0926 36.9155 11.9689 36.7914C11.8452 36.6674 11.6899 36.5796 11.5198 36.5375L5.82129 35.1244L7.47057 29.492C7.5196 29.324 7.52172 29.1457 7.47671 28.9764C7.4317 28.8072 7.34127 28.6536 7.21521 28.532L2.99121 24.4597L7.23633 20.4047C7.36306 20.2836 7.45422 20.1301 7.49991 19.9609C7.5456 19.7916 7.54409 19.6131 7.49553 19.4447L5.86929 13.8037L11.5736 12.4146C11.7438 12.373 11.8993 12.2856 12.0233 12.1619C12.1474 12.0382 12.2352 11.8829 12.2773 11.7128L13.6904 6.0143L19.3179 7.6607C19.486 7.70973 19.6643 7.71186 19.8335 7.66685C20.0027 7.62184 20.1564 7.53141 20.2779 7.40534L24.3502 3.18134L28.4053 7.42646C28.5264 7.5532 28.6799 7.64435 28.8491 7.69004C29.0183 7.73574 29.1969 7.73422 29.3653 7.68566L35.0062 6.05942L36.3954 11.7637C36.437 11.9339 36.5244 12.0894 36.6481 12.2134C36.7718 12.3375 36.9271 12.4253 37.0971 12.4674L42.7957 13.8805L41.1493 19.508C41.1003 19.6761 41.0981 19.8544 41.1431 20.0236C41.1882 20.1928 41.2786 20.3465 41.4046 20.468L45.6334 24.5404L41.3883 28.5983ZM32.2683 16.5397C32.4483 16.7197 32.5494 16.9639 32.5494 17.2184C32.5494 17.473 32.4483 17.7171 32.2683 17.8972L17.7051 32.4604C17.5241 32.6352 17.2816 32.732 17.0299 32.7298C16.7782 32.7276 16.5374 32.6267 16.3594 32.4487C16.1814 32.2707 16.0804 32.0299 16.0782 31.7782C16.0761 31.5265 16.1728 31.284 16.3477 31.1029L30.9109 16.5397C31.0001 16.4503 31.106 16.3794 31.2226 16.331C31.3393 16.2826 31.4643 16.2577 31.5906 16.2577C31.7168 16.2577 31.8419 16.2826 31.9585 16.331C32.0751 16.3794 32.1811 16.4503 32.2702 16.5397H32.2683ZM19.749 23.3183C20.5307 23.3178 21.2882 23.0464 21.8922 22.5501C22.4963 22.0538 22.9096 21.3634 23.0617 20.5966C23.2138 19.8298 23.0953 19.0339 22.7265 18.3447C22.3576 17.6554 21.7612 17.1153 21.0388 16.8165C20.3163 16.5177 19.5127 16.4786 18.7647 16.7058C18.0167 16.9331 17.3706 17.4127 16.9366 18.0629C16.5025 18.7131 16.3073 19.4937 16.3843 20.2717C16.4612 21.0497 16.8056 21.7769 17.3586 22.3295C17.6723 22.6435 18.045 22.8925 18.4552 23.0622C18.8654 23.2319 19.3051 23.3189 19.749 23.3183ZM18.716 18.9023C18.9203 18.6979 19.1807 18.5587 19.4641 18.5022C19.7476 18.4458 20.0414 18.4747 20.3084 18.5853C20.5754 18.6959 20.8036 18.8831 20.9642 19.1234C21.1248 19.3637 21.2105 19.6462 21.2105 19.9352C21.2105 20.2242 21.1248 20.5068 20.9642 20.7471C20.8036 20.9873 20.5754 21.1746 20.3084 21.2852C20.0414 21.3958 19.7476 21.4247 19.4641 21.3682C19.1807 21.3118 18.9203 21.1726 18.716 20.9682C18.4426 20.6947 18.289 20.3239 18.289 19.9372C18.289 19.5505 18.4426 19.1796 18.716 18.9061V18.9023ZM26.4805 26.6668C26.0078 27.1395 25.686 27.7418 25.5556 28.3975C25.4253 29.0531 25.4922 29.7327 25.7481 30.3503C26.004 30.9679 26.4372 31.4958 26.9931 31.8672C27.5489 32.2386 28.2024 32.4368 28.8709 32.4368C29.5394 32.4368 30.1929 32.2386 30.7487 31.8672C31.3046 31.4958 31.7378 30.9679 31.9937 30.3503C32.2495 29.7327 32.3165 29.0531 32.1862 28.3975C32.0558 27.7418 31.7339 27.1395 31.2613 26.6668C30.6264 26.0341 29.7664 25.6793 28.8701 25.68C27.9738 25.6807 27.1144 26.037 26.4805 26.6706V26.6668ZM29.9038 30.0901C29.6996 30.2942 29.4394 30.4331 29.1562 30.4894C28.873 30.5456 28.5795 30.5166 28.3127 30.406C28.046 30.2955 27.818 30.1083 27.6577 29.8682C27.4973 29.6281 27.4117 29.3459 27.4117 29.0572C27.4117 28.7684 27.4973 28.4862 27.6577 28.2461C27.818 28.006 28.046 27.8188 28.3127 27.7083C28.5795 27.5977 28.873 27.5687 29.1562 27.625C29.4394 27.6812 29.6996 27.8201 29.9038 28.0242C30.178 28.2989 30.3319 28.671 30.3319 29.0591C30.3319 29.4471 30.178 29.8193 29.9038 30.094V30.0901Z" fill="#7A3422"/>
  </g>
  <defs>
    <clipPath id="clip0_1_116">
      <rect width="48" height="48" fill="white" transform="translate(0.309998 0.5)"/>
    </clipPath>
  </defs>
</svg>