<svg width="38" height="39" viewBox="0 0 38 39" fill="none" xmlns="http://www.w3.org/2000/svg">
<path fill-rule="evenodd" clip-rule="evenodd" d="M4.73407 8.20142C5.23491 7.37055 7.9961 4.35434 9.96374 4.44538C10.5524 4.49579 11.0728 4.85025 11.4956 5.26326H11.4972C12.4664 6.21284 15.2471 9.79652 15.4032 10.551C15.7886 12.4014 13.5819 13.468 14.2568 15.333C15.9772 19.5427 18.9417 22.507 23.1534 24.2255C25.017 24.9019 26.0837 22.6971 27.9343 23.0809C28.6887 23.2386 32.2745 26.0174 33.2224 26.9881C33.6339 27.4093 33.9916 27.9312 34.0404 28.5198C34.1135 30.5929 30.9101 33.3913 30.2857 33.749C28.8124 34.8043 26.8902 34.7848 24.547 33.6955C18.0083 30.9751 7.55867 20.7232 4.78772 13.9379C3.72748 11.6079 3.65593 9.67296 4.73407 8.20142Z" stroke="#1A202C" stroke-width="2.375" stroke-linecap="round" stroke-linejoin="round"/>
<path d="M23.0619 4.83887C28.9234 5.48962 33.5515 10.113 34.2101 15.9729" stroke="#D14E40" stroke-width="2.375" stroke-linecap="round" stroke-linejoin="round"/>
<path d="M23.0619 10.4487C25.8644 10.995 28.0541 13.1847 28.6004 15.9872" stroke="#D14E40" stroke-width="2.375" stroke-linecap="round" stroke-linejoin="round"/>
</svg>
