<svg width="54" height="54" viewBox="0 0 54 54" fill="none" xmlns="http://www.w3.org/2000/svg">
<rect width="54" height="54" rx="27" fill="#D14E40"/>
<g clip-path="url(#clip0_1_368)">
<path d="M26.9999 10.3333C36.1859 10.3333 43.6666 17.8103 43.6666 27.0096C43.6666 36.1895 36.1859 43.6666 26.9999 43.6666C17.814 43.6666 10.3333 36.1895 10.3333 27.0096C10.3333 17.8103 17.814 10.3333 26.9999 10.3333ZM25.1016 20.3831C24.7477 20.3831 24.4098 20.4635 24.0881 20.6243C23.6859 20.8494 23.3641 21.2032 23.1872 21.6212C23.0746 21.9107 22.8976 22.779 22.8976 22.7951C22.7206 23.7438 22.6241 25.2874 22.6241 26.9919C22.6241 28.6175 22.7206 30.0953 22.8654 31.0601C22.8815 31.0761 23.0585 32.1535 23.2515 32.5233C23.6055 33.1987 24.2972 33.6167 25.0372 33.6167H25.1016C25.5842 33.6007 26.5977 33.1826 26.5977 33.1665C28.303 32.459 31.6653 30.2561 33.0167 28.7928L33.1132 28.6963C33.2901 28.5195 33.5154 28.2461 33.5636 28.1818C33.821 27.8441 33.9497 27.426 33.9497 27.0096C33.9497 26.5416 33.8049 26.1075 33.5315 25.7537C33.4671 25.6894 33.2258 25.4161 33.0006 25.1909C31.6814 23.7759 28.2387 21.4604 26.4369 20.7529C26.1634 20.642 25.4716 20.3992 25.1016 20.3831Z" fill="#F7FAFC"/>
</g>
<defs>
<clipPath id="clip0_1_368">
<rect width="34" height="34" fill="white" transform="translate(10 10)"/>
</clipPath>
</defs>
</svg>
