<svg width="80" height="81" viewBox="0 0 80 81" fill="none" xmlns="http://www.w3.org/2000/svg">
<mask id="mask0_1_454" style="mask-type:luminance" maskUnits="userSpaceOnUse" x="10" y="10" width="60" height="59">
<path d="M69.333 10.9919H10.6663V68.6968H69.333V10.9919Z" fill="white"/>
</mask>
<g mask="url(#mask0_1_454)">
<path d="M63.316 26.3439L60.0692 25.2967L59.7315 24.4797C59.5873 24.1278 59.3369 23.8261 59.013 23.6139C58.6891 23.4016 58.3065 23.2887 57.9153 23.2898H57.3855L56.9633 21.6547C56.805 21.0405 56.4387 20.4953 55.923 20.1059C55.4072 19.7165 54.7716 19.5053 54.1174 19.5059H53.6886V17.4396C54.341 17.2165 54.8909 16.7774 55.2411 16.1999C55.5912 15.6225 55.7191 14.9439 55.6021 14.284C55.4852 13.6242 55.1308 13.0256 54.6018 12.594C54.0727 12.1625 53.403 11.9258 52.711 11.9258C52.019 11.9258 51.3493 12.1624 50.8202 12.5939C50.2912 13.0254 49.9368 13.624 49.8197 14.2838C49.7027 14.9437 49.8306 15.6223 50.1807 16.1998C50.5308 16.7773 51.0807 17.2164 51.7331 17.4396V19.5059H51.3043C50.65 19.5053 50.0142 19.7166 49.4984 20.1062C48.9827 20.4958 48.6165 21.0413 48.4584 21.6556L48.0363 23.2898H47.5064C47.1152 23.2886 46.7327 23.4015 46.4088 23.6138C46.085 23.826 45.8347 24.1278 45.6907 24.4797L45.3529 25.2966L42.1057 26.3439C40.3526 26.9074 38.8277 27.9909 37.7475 29.4407C36.6674 30.8905 36.0869 32.6327 36.0886 34.4199V35.5876C36.0895 36.34 36.3988 37.0614 36.9487 37.5934C37.4986 38.1255 38.2443 38.4247 39.022 38.4255H41.9553V39.9184C41.9537 41.5998 42.4684 43.2438 43.4339 44.6419L43.6592 44.968C44.298 45.8906 44.6856 46.9543 44.7863 48.0606C44.8869 49.1668 44.6973 50.2797 44.235 51.2961L40.3874 59.8044L42.1787 60.5619L46.0262 52.0536C46.6208 50.7468 46.8646 49.3159 46.7352 47.8937C46.6057 46.4714 46.1072 45.1038 45.2858 43.9176L45.0604 43.5915C44.3096 42.5043 43.9095 41.2259 43.9108 39.9184V37.7031C43.9089 35.1758 44.4072 32.6715 45.3789 30.3256L47.5064 25.1818H57.9158L60.0423 30.3256C61.0144 32.6714 61.5129 35.1758 61.5108 37.7031V39.9184C61.5122 41.2256 61.1122 42.5037 60.3617 43.5906L60.1354 43.9186C59.3141 45.1046 58.8157 46.4721 58.6863 47.8942C58.557 49.3163 58.8009 50.747 59.3954 52.0536L63.7066 61.5874C64.1943 62.6631 64.4455 63.8252 64.4442 64.9999V68.697H66.3997V64.9999C66.4017 63.5644 66.0946 62.1442 65.4979 60.8298L61.1867 51.2961C60.7244 50.2798 60.5347 49.1671 60.6353 48.0611C60.7359 46.955 61.1234 45.8914 61.762 44.9689L61.9883 44.6409C62.9536 43.2431 63.468 41.5995 63.4664 39.9184V38.4255H66.3997C67.1774 38.4247 67.9231 38.1255 68.473 37.5934C69.0229 37.0614 69.3322 36.34 69.3331 35.5876V34.4199C69.3348 32.6327 68.7543 30.8905 67.6741 29.4407C66.594 27.9909 65.069 26.9074 63.316 26.3439ZM52.7108 13.83C52.9042 13.83 53.0933 13.8855 53.2541 13.9894C53.4149 14.0934 53.5402 14.2411 53.6142 14.414C53.6882 14.5868 53.7076 14.777 53.6698 14.9605C53.6321 15.144 53.539 15.3126 53.4022 15.4449C53.2655 15.5772 53.0913 15.6673 52.9016 15.7038C52.7119 15.7403 52.5153 15.7216 52.3367 15.65C52.158 15.5784 52.0053 15.4571 51.8979 15.3015C51.7904 15.146 51.7331 14.9631 51.7331 14.776C51.7333 14.5252 51.8364 14.2847 52.0197 14.1073C52.2031 13.93 52.4516 13.8303 52.7108 13.83ZM43.5633 29.6235C42.6583 31.829 42.1343 34.1635 42.0124 36.5336H39.022C38.7627 36.5333 38.5142 36.4336 38.3309 36.2562C38.1475 36.0789 38.0444 35.8384 38.0442 35.5876V34.4199C38.043 33.0298 38.4945 31.6746 39.3347 30.547C40.1748 29.4193 41.3609 28.5764 42.7244 28.138L44.4013 27.5971L43.5633 29.6235ZM50.3557 22.1147C50.4083 21.9099 50.5303 21.728 50.7023 21.5981C50.8742 21.4681 51.0862 21.3976 51.3043 21.3979H54.1174C54.3354 21.3976 54.5473 21.468 54.7192 21.5977C54.8911 21.7275 55.0132 21.9092 55.066 22.1138L55.3698 23.2898H50.052L50.3557 22.1147ZM67.3775 35.5876C67.3773 35.8384 67.2742 36.0789 67.0908 36.2562C66.9075 36.4336 66.659 36.5333 66.3997 36.5336H63.4093C63.2874 34.1635 62.7633 31.8289 61.858 29.6235L61.0202 27.5971L62.6973 28.138C64.0608 28.5764 65.2469 29.4193 66.087 30.547C66.9272 31.6747 67.3787 33.0298 67.3775 34.4199V35.5876Z" fill="white"/>
<path d="M36.0885 61.129H24.3551V52.6151H28.3651C28.5585 53.5231 29.0227 54.3562 29.7002 55.0117C30.3777 55.6672 31.2389 56.1163 32.1774 56.3035V59.237H34.1329V56.3035C35.2363 56.084 36.2278 55.5033 36.9402 54.6591C37.6526 53.815 38.0425 52.759 38.044 51.6692V43.1553C38.0432 42.4029 37.7339 41.6815 37.1839 41.1495C36.634 40.6174 35.8884 40.3182 35.1107 40.3174H31.1996C30.4219 40.3182 29.6763 40.6174 29.1263 41.1495C28.5764 41.6815 28.2671 42.4029 28.2663 43.1553H22.3996H20.444H16.5329H14.5774H13.5996C12.8219 43.1561 12.0763 43.4554 11.5264 43.9874C10.9764 44.5195 10.6671 45.2408 10.6663 45.9933V49.7772C10.6671 50.5296 10.9764 51.251 11.5264 51.783C12.0763 52.3151 12.8219 52.6143 13.5996 52.6151V61.129C12.8219 61.1298 12.0763 61.4291 11.5264 61.9611C10.9764 62.4931 10.6671 63.2145 10.6663 63.9669V65.8589C10.6671 66.6113 10.9764 67.3327 11.5264 67.8647C12.0763 68.3968 12.8219 68.696 13.5996 68.6968H36.0885C36.8662 68.696 37.6118 68.3968 38.1617 67.8647C38.7116 67.3327 39.021 66.6113 39.0218 65.8589V63.9669C39.021 63.2145 38.7116 62.4931 38.1617 61.9611C37.6118 61.4291 36.8662 61.1298 36.0885 61.129ZM31.1996 42.2093H35.1107C35.3699 42.2096 35.6185 42.3093 35.8018 42.4867C35.9851 42.664 36.0882 42.9045 36.0885 43.1553V51.6692C36.0885 52.4218 35.7794 53.1437 35.2293 53.6759C34.6792 54.2081 33.9331 54.5071 33.1551 54.5071C32.3772 54.5071 31.6311 54.2081 31.081 53.6759C30.5309 53.1437 30.2218 52.4218 30.2218 51.6692V43.1553C30.2221 42.9045 30.3252 42.664 30.5085 42.4867C30.6918 42.3093 30.9403 42.2096 31.1996 42.2093ZM12.6218 49.7772V45.9933C12.6221 45.7424 12.7252 45.502 12.9085 45.3246C13.0918 45.1473 13.3403 45.0475 13.5996 45.0473H28.2663V50.7232H13.5996C13.3403 50.7229 13.0918 50.6232 12.9085 50.4458C12.7252 50.2685 12.6221 50.028 12.6218 49.7772ZM15.5551 52.6151H22.3996V61.129H15.5551V52.6151ZM37.0663 65.8589C37.066 66.1097 36.9629 66.3502 36.7796 66.5275C36.5963 66.7049 36.3477 66.8046 36.0885 66.8049H13.5996C13.3403 66.8046 13.0918 66.7049 12.9085 66.5275C12.7252 66.3502 12.6221 66.1097 12.6218 65.8589V63.9669C12.6221 63.7161 12.7252 63.4756 12.9085 63.2983C13.0918 63.1209 13.3403 63.0212 13.5996 63.0209H36.0885C36.3477 63.0212 36.5963 63.1209 36.7796 63.2983C36.9629 63.4756 37.066 63.7161 37.0663 63.9669V65.8589Z" fill="white"/>
</g>
</svg>
