<svg width="50" height="59" viewBox="0 0 50 59" fill="none" xmlns="http://www.w3.org/2000/svg">
<g clip-path="url(#clip0_1_390)">
<path fill-rule="evenodd" clip-rule="evenodd" d="M23.1123 2.47067C22.7072 2.47209 22.289 2.47355 21.8573 2.47355C21.4237 2.47355 21.0034 2.47197 20.5957 2.47043C19.411 2.46596 18.3331 2.4619 17.3444 2.49829C16.0155 2.5472 14.9377 2.66782 14.0837 2.92685C13.2475 3.18045 12.677 3.5509 12.29 4.07635C11.8978 4.60879 11.6158 5.40667 11.5639 6.657V7.09283C11.5639 7.3492 11.5823 7.61282 11.6346 7.88888C11.6353 7.89275 11.636 7.89663 11.6367 7.90051C11.872 9.23193 12.6268 10.8267 13.7044 12.5193C14.7717 14.1956 16.1073 15.894 17.4245 17.4218C18.7397 18.9471 20.0237 20.2876 20.9797 21.2473C21.3283 21.5973 21.6327 21.896 21.8785 22.1341C22.1244 21.8954 22.4291 21.5957 22.778 21.2447C23.7341 20.2829 25.0182 18.9397 26.3334 17.4116C27.6507 15.8811 28.9864 14.1799 30.0538 12.5014C31.1315 10.8066 31.8864 9.21043 32.1218 7.87882C32.1231 7.87108 32.1246 7.86336 32.1262 7.85565C32.1754 7.61175 32.1946 7.35412 32.1946 7.07114C32.1946 6.89727 32.1919 6.83244 32.1861 6.79784C32.1801 6.76233 32.1762 6.72651 32.1742 6.69056C32.1127 5.57424 31.9117 4.84113 31.61 4.33805L31.6048 4.32934C31.072 3.41945 30.1044 2.91222 28.4183 2.66646C26.9822 2.45715 25.2263 2.46329 23.1123 2.47067ZM21.8792 23.488C21.2077 24.2023 21.2076 24.2022 21.2074 24.202L21.1988 24.1941L21.1755 24.1724C21.1552 24.1535 21.1256 24.1259 21.0872 24.0899C21.0104 24.0178 20.8986 23.9122 20.7564 23.7761C20.4721 23.504 20.0662 23.1097 19.5764 22.618C18.5976 21.6354 17.2795 20.2596 15.9255 18.6891C14.5735 17.1211 13.1729 15.3443 12.037 13.5602C10.9128 11.7944 9.99846 9.94584 9.69615 8.2427C9.61789 7.82704 9.59277 7.44204 9.59277 7.09283V6.63741C9.59277 6.62466 9.59303 6.61191 9.59353 6.59916C9.65309 5.09515 9.99991 3.87332 10.6974 2.92625C11.4021 1.96955 12.3852 1.40069 13.5064 1.06062C14.6098 0.725974 15.8931 0.598549 17.2711 0.547832C18.3039 0.509824 19.4403 0.514137 20.6379 0.518682C21.038 0.5202 21.4451 0.521745 21.8573 0.521745C22.2649 0.521745 22.6676 0.520169 23.0643 0.518617C25.1712 0.510372 27.1089 0.502789 28.7053 0.735461C30.6256 1.01536 32.3287 1.6783 33.3074 3.3459C33.8298 4.21933 34.0668 5.29092 34.1397 6.53851C34.1661 6.73161 34.1659 6.9262 34.1657 7.04712C34.1657 7.05549 34.1657 7.0635 34.1657 7.07114C34.1657 7.43519 34.1416 7.8241 34.0613 8.22658C33.7581 9.928 32.8446 11.7757 31.7217 13.5414C30.586 15.3274 29.1854 17.1069 27.8336 18.6776C26.4796 20.2508 25.1615 21.6292 24.1828 22.6139C23.693 23.1066 23.2871 23.5017 23.0028 23.7744C22.8607 23.9108 22.7489 24.0167 22.6721 24.0889C22.6337 24.125 22.6041 24.1527 22.5838 24.1716L22.5605 24.1933L22.5542 24.1991L22.5519 24.2013C22.5517 24.2014 22.5516 24.2015 21.8792 23.488ZM21.8792 23.488L22.5519 24.2013C22.1736 24.5509 21.5861 24.5511 21.2074 24.202L21.8792 23.488Z" fill="white"/>
<path fill-rule="evenodd" clip-rule="evenodd" d="M23.1334 5.68025C22.729 5.6816 22.311 5.68299 21.8792 5.68299C21.4713 5.68299 21.0757 5.68184 20.6922 5.68073C18.0293 5.67299 15.9514 5.66695 14.3971 6.05937C13.5436 6.27483 12.9421 6.59197 12.5203 7.02855C12.1047 7.45871 11.7838 8.08749 11.6415 9.07402C11.5645 9.60758 11.0653 9.97832 10.5265 9.9021C9.98764 9.82588 9.61323 9.33155 9.69021 8.79799C9.8764 7.50741 10.333 6.46903 11.096 5.67931C11.8527 4.896 12.8308 4.44056 13.9101 4.16806C15.728 3.70912 18.0975 3.7182 20.7049 3.7282C21.0914 3.72968 21.4832 3.73118 21.8792 3.73118C22.2928 3.73118 22.702 3.72943 23.1055 3.7277C25.6812 3.71667 28.0263 3.70663 29.8305 4.15961C30.9103 4.43069 31.8895 4.88529 32.649 5.66911C33.4144 6.45902 33.8754 7.49913 34.0676 8.79415C34.1467 9.3274 33.7743 9.8232 33.2357 9.90154C32.6972 9.97989 32.1965 9.61111 32.1174 9.07786C31.9701 8.08493 31.6454 7.45245 31.2267 7.02044C30.8022 6.58235 30.1991 6.26572 29.3461 6.05156C27.8052 5.66469 25.7553 5.67152 23.1334 5.68025Z" fill="white"/>
<path fill-rule="evenodd" clip-rule="evenodd" d="M19.6671 23.9216V52.006H18.134V23.9216H19.6671Z" fill="white"/>
<path d="M22.3174 29.9072C23.0189 29.9072 23.5876 29.3441 23.5876 28.6494C23.5876 27.9547 23.0189 27.3916 22.3174 27.3916C21.6158 27.3916 21.0471 27.9547 21.0471 28.6494C21.0471 29.3441 21.6158 29.9072 22.3174 29.9072Z" fill="white"/>
<path d="M22.3174 42.659C23.0189 42.659 23.5876 42.0958 23.5876 41.4011C23.5876 40.7065 23.0189 40.1433 22.3174 40.1433C21.6158 40.1433 21.0471 40.7065 21.0471 41.4011C21.0471 42.0958 21.6158 42.659 22.3174 42.659Z" fill="white"/>
<path fill-rule="evenodd" clip-rule="evenodd" d="M32.6957 6.42244C32.8036 5.89415 33.3235 5.55242 33.857 5.65917L33.6618 6.61574L33.4666 7.57231C32.933 7.46555 32.5879 6.95074 32.6957 6.42244ZM33.6618 6.61574C33.4666 7.57231 33.4665 7.5723 33.4666 7.57231L33.6529 7.60949C33.7726 7.63335 33.9459 7.66781 34.1599 7.71024C34.588 7.79509 35.1797 7.91185 35.8338 8.03949C37.139 8.29418 38.7032 8.59422 39.711 8.76967C40.588 8.92236 41.1484 9.20383 41.4817 9.52872C41.7928 9.83191 41.9841 10.2473 41.9841 10.8663V36.0013C41.9841 36.5402 42.4254 36.9772 42.9697 36.9772C43.514 36.9772 43.9552 36.5402 43.9552 36.0013V10.8663C43.9552 9.79378 43.5991 8.85379 42.8644 8.1377C42.152 7.44331 41.1683 7.04165 40.0523 6.84735C39.0671 6.67582 37.5214 6.37947 36.2149 6.12452C35.5632 5.99734 34.9735 5.88097 34.5468 5.79639C34.3334 5.75411 34.1609 5.71978 34.0417 5.69603L33.857 5.65917C33.8569 5.65917 33.857 5.65917 33.6618 6.61574Z" fill="white"/>
<path fill-rule="evenodd" clip-rule="evenodd" d="M11.265 6.47357C11.3564 7.00489 10.9955 7.50898 10.459 7.59948L10.2935 6.63743L10.128 5.67539C10.6646 5.58489 11.1736 5.94225 11.265 6.47357ZM3.85061 6.8796C2.72557 7.13519 1.75017 7.53056 1.0538 8.20158C0.319074 8.90957 0 9.82039 0 10.8663V48.6446C0 51.0229 1.94828 52.982 4.3802 52.982H30.7052C31.2495 52.982 31.6908 52.5451 31.6908 52.0061C31.6908 51.4671 31.2495 51.0302 30.7052 51.0302H4.3802C3.04515 51.0302 1.97109 49.9531 1.97109 48.6446V10.8663C1.97109 10.2424 2.14479 9.87374 2.42846 9.60039C2.7499 9.29065 3.31747 9.00299 4.29374 8.78145L4.29932 8.78017C5.39103 8.52581 6.92557 8.23125 8.2001 7.99834C8.83464 7.88238 9.39989 7.78257 9.80648 7.71176C10.0097 7.67637 10.1732 7.64824 10.2857 7.62899C10.3419 7.61936 10.3854 7.61195 10.4148 7.60697L10.459 7.59948L10.2935 6.63743C10.128 5.67539 10.128 5.67538 10.128 5.67539L10.0816 5.68325C10.0514 5.68837 10.0071 5.69592 9.94999 5.70569C9.83578 5.72524 9.67039 5.7537 9.46504 5.78946C9.05444 5.86097 8.48359 5.96177 7.84238 6.07894C6.56647 6.31211 4.99258 6.61364 3.85061 6.8796Z" fill="white"/>
<path fill-rule="evenodd" clip-rule="evenodd" d="M42.9765 11.0571C43.2087 10.5696 43.796 10.3609 44.2883 10.5908C45.7663 11.2812 46.8464 12.7795 46.8464 14.5313V36.0662C46.8464 36.6052 46.4051 37.0421 45.8608 37.0421C45.3165 37.0421 44.8753 36.6052 44.8753 36.0662V14.5313C44.8753 13.5939 44.2909 12.7501 43.4474 12.3561C42.9551 12.1261 42.7443 11.5446 42.9765 11.0571Z" fill="white"/>
<path d="M48.1823 44.5674C48.4451 44.0903 48.3575 43.6566 47.9414 43.2879C47.5253 42.9192 47.3501 42.4638 47.372 41.9C47.3939 41.3578 47.153 40.9891 46.6273 40.8156C46.1017 40.6421 45.7513 40.2951 45.5542 39.7747C45.3571 39.2542 44.9848 39.0373 44.4372 39.0807C43.8897 39.124 43.4079 38.9722 43.0137 38.5819C42.6195 38.1915 42.1814 38.1265 41.6996 38.4084C41.2178 38.6686 40.7141 38.712 40.2104 38.5168C39.6847 38.3216 39.2686 38.4301 38.9401 38.8855C38.6116 39.3192 38.1736 39.5578 37.6041 39.5795C37.0566 39.6012 36.7062 39.8831 36.5967 40.4253C36.4653 40.9674 36.1587 41.3578 35.6768 41.5963C35.1731 41.8349 34.9979 42.2469 35.1074 42.7674C35.2169 43.3096 35.0855 43.7867 34.7351 44.2204C34.3847 44.6542 34.3628 45.0879 34.6913 45.5216C35.0198 45.9554 35.1074 46.4542 34.9541 46.9963C34.8008 47.5168 34.976 47.9289 35.4578 48.2108C35.9397 48.4927 36.2244 48.9048 36.2901 49.4469C36.3777 49.9891 36.6843 50.2927 37.2537 50.3578C37.8012 50.4228 38.2393 50.6831 38.524 51.1385C38.8087 51.5939 39.2467 51.7457 39.7723 51.5939C40.298 51.4204 40.8017 51.5072 41.2616 51.7891C41.7215 52.0927 42.1595 52.0494 42.5757 51.7024C42.9918 51.3337 43.4736 51.2036 44.0211 51.2903C44.5687 51.3771 44.9629 51.1819 45.1819 50.6831C45.4228 50.1843 45.7951 49.859 46.3426 49.7289C46.8683 49.5987 47.153 49.2518 47.153 48.6879C47.153 48.1457 47.372 47.6903 47.81 47.3433C48.248 46.9963 48.3575 46.5843 48.1385 46.0638C47.9195 45.5433 47.9195 45.0445 48.1823 44.5674ZM41.393 49.7072C38.8306 49.7072 36.75 47.6469 36.75 45.1096C36.75 42.5722 38.8306 40.512 41.393 40.512C43.9554 40.512 46.036 42.5722 46.036 45.1096C46.036 47.6469 43.9554 49.7072 41.393 49.7072Z" fill="white"/>
<path d="M39.2687 52.3963C38.6555 52.5915 38.1955 52.418 37.8451 51.8758C37.4947 51.3553 37.0129 51.0517 36.3777 50.965C35.7864 50.8999 35.4141 50.5746 35.3046 50.0107L32.8517 55.2372C32.6984 55.5625 32.8736 55.7794 33.224 55.736L35.6331 55.4107C35.9835 55.3674 36.4215 55.5625 36.6187 55.8662L37.9108 57.9047C38.1079 58.2083 38.3707 58.1866 38.524 57.8613L40.977 52.6348C40.4294 52.2878 39.8819 52.2011 39.2687 52.3963Z" fill="white"/>
<path d="M49.9345 55.2372L47.4378 49.8806C47.2845 50.0324 47.0874 50.1625 46.8246 50.2276C46.2114 50.3794 45.7734 50.7481 45.5105 51.3336C45.2477 51.8975 44.7878 52.136 44.1746 52.0493C43.5394 51.9409 42.9919 52.1143 42.5101 52.5264C42.3349 52.6782 42.1378 52.7866 41.9407 52.83L44.2841 57.8396C44.4374 58.1649 44.7002 58.1866 44.8973 57.883L46.1895 55.8445C46.3866 55.5409 46.8246 55.3457 47.175 55.389L49.5841 55.7143C49.9126 55.7794 50.0878 55.5625 49.9345 55.2372Z" fill="white"/>
<path d="M41.3927 48.753C43.4248 48.753 45.0721 47.1218 45.0721 45.1097C45.0721 43.0975 43.4248 41.4663 41.3927 41.4663C39.3607 41.4663 37.7134 43.0975 37.7134 45.1097C37.7134 47.1218 39.3607 48.753 41.3927 48.753Z" fill="white"/>
</g>
<defs>
<clipPath id="clip0_1_390">
<rect width="50" height="58" fill="white" transform="translate(0 0.5)"/>
</clipPath>
</defs>
</svg>
