<svg width="53" height="53" viewBox="0 0 53 53" fill="none" xmlns="http://www.w3.org/2000/svg">
<g clip-path="url(#clip0_1_414)">
<path d="M51.6332 20.3483H35.5912V16.6817L43.8332 13.606C43.9604 13.5553 44.0746 13.4767 44.1676 13.3759C44.2605 13.2752 44.3299 13.1549 44.3705 13.0239C44.4072 12.8918 44.4122 12.7529 44.3851 12.6185C44.358 12.4841 44.2996 12.3581 44.2145 12.2506L35.4005 1.19896C35.3087 1.0803 35.1878 0.987508 35.0496 0.929644C34.9114 0.87178 34.7606 0.850818 34.6119 0.868803C34.6119 0.868803 34.3952 0.868803 34.1525 0.868803H29.6979C29.468 0.868803 29.2476 0.960341 29.085 1.12328C28.9225 1.28622 28.8312 1.50721 28.8312 1.73765C28.8312 6.19481 25.9452 9.81788 22.4265 9.81788C18.9079 9.81788 16.0392 6.22087 16.0219 1.73765C16.0219 1.50721 15.9306 1.28622 15.768 1.12328C15.6055 0.960341 15.3851 0.868803 15.1552 0.868803H10.1285C9.99906 0.868361 9.87113 0.897009 9.75415 0.952639C9.63717 1.00827 9.53411 1.08947 9.45254 1.19027L0.690538 12.2767C0.605206 12.3839 0.54639 12.5098 0.518901 12.6441C0.491413 12.7785 0.496031 12.9174 0.53238 13.0496C0.568728 13.1818 0.635774 13.3035 0.728034 13.4047C0.820295 13.506 0.935149 13.5839 1.06321 13.6321L9.26187 16.7165V34.8927C9.263 35.0887 9.3302 35.2785 9.45254 35.4314L10.0245 36.1438C10.1053 36.2462 10.2079 36.3291 10.325 36.3862C10.442 36.4434 10.5704 36.4734 10.7005 36.474H22.0279V52.1305C22.0279 52.361 22.1192 52.5819 22.2817 52.7449C22.4442 52.9078 22.6647 52.9994 22.8945 52.9994H32.8092C33.0037 53.0066 33.195 52.9479 33.3522 52.8329C33.5094 52.7178 33.6234 52.553 33.6759 52.3651L37.2812 39.289L40.8952 52.3651C40.9476 52.553 41.0616 52.7178 41.2188 52.8329C41.3761 52.9479 41.5673 53.0066 41.7619 52.9994H51.6332C51.8631 52.9994 52.0835 52.9078 52.246 52.7449C52.4086 52.5819 52.4999 52.361 52.4999 52.1305V21.2171C52.4999 20.9867 52.4086 20.7657 52.246 20.6027C52.0835 20.4398 51.8631 20.3483 51.6332 20.3483ZM10.9952 34.5886V16.117C10.9964 15.9405 10.944 15.7678 10.8449 15.6219C10.7459 15.476 10.6048 15.3638 10.4405 15.3003L2.78787 12.4244L10.5532 2.60649H14.3665C14.7479 7.61102 18.2405 11.5469 22.4699 11.5469C26.6992 11.5469 30.1485 7.64578 30.5299 2.60649H34.2999L42.0999 12.3897L34.4559 15.2655C34.29 15.3277 34.1471 15.4392 34.0464 15.5853C33.9456 15.7313 33.892 15.9047 33.8925 16.0822V34.7537H11.1165L10.9952 34.5886ZM50.7665 51.2617H42.3599L38.0959 35.7963C38.0434 35.6083 37.9294 35.4436 37.7722 35.3285C37.615 35.2135 37.4237 35.1548 37.2292 35.162C37.0347 35.1548 36.8434 35.2135 36.6862 35.3285C36.529 35.4436 36.415 35.6083 36.3625 35.7963L32.1505 51.2617H23.7612V36.4914H34.1612C34.3597 36.4836 34.5546 36.4363 34.7347 36.3524C34.9149 36.2684 35.0765 36.1494 35.2104 36.0023C35.3442 35.8552 35.4476 35.6829 35.5145 35.4954C35.5813 35.3079 35.6104 35.1089 35.5999 34.9101V22.0859H50.7665V51.2617Z" fill="white"/>
</g>
<defs>
<clipPath id="clip0_1_414">
<rect width="52" height="53" fill="white" transform="translate(0.5)"/>
</clipPath>
</defs>
</svg>
