<svg width="64" height="43" viewBox="0 0 64 43" fill="none" xmlns="http://www.w3.org/2000/svg">
<g clip-path="url(#clip0_1_422)">
<path d="M39.4354 15.9282H49.1021V24.6226H52.0764V26.7962H53.5636V24.6226H56.419L57.921 15.8703C59.661 15.566 60.9995 14.0879 60.9995 12.3056V6.50936C60.9995 4.50966 59.3339 2.88672 57.2816 2.88672H52.0764V0.713135H50.5892V2.88672H16.3841V0.713135H14.8969V2.88672H9.69181C7.63951 2.88672 5.97386 4.50966 5.97386 6.50936V34.766H0.0251465V42.0112H63.9739V34.766H19.4031C19.7898 24.3183 28.6087 15.9282 39.4354 15.9282ZM55.1698 23.1735H50.5892V15.9282H56.4041L55.1698 23.1735ZM7.46104 6.50936C7.46104 5.30664 8.45745 4.33578 9.69181 4.33578H57.2816C58.5159 4.33578 59.5123 5.30664 59.5123 6.50936V12.3056C59.5123 13.5083 58.5159 14.4792 57.2816 14.4792H39.4354C27.7908 14.4792 18.3026 23.5213 17.9159 34.766H7.46104V6.50936ZM62.4867 36.215V40.5622H1.51233V36.215H62.4867Z" fill="white"/>
</g>
<defs>
<clipPath id="clip0_1_422">
<rect width="64" height="43" fill="white"/>
</clipPath>
</defs>
</svg>
