<svg width="55" height="51" viewBox="0 0 55 51" fill="none" xmlns="http://www.w3.org/2000/svg">
<g clip-path="url(#clip0_1_431)">
<path fill-rule="evenodd" clip-rule="evenodd" d="M53.9262 50.5C53.6752 50.5 53.4253 50.413 53.2272 50.239L14.2398 15.911C10.8155 12.815 9.21224 9.80396 9.46113 6.95196C9.75046 3.64196 12.4592 1.87596 12.5733 1.80196C12.6593 1.75096 14.1195 0.886963 16.2351 0.886963C18.417 0.886963 21.637 1.80696 24.5894 6.18996L54.6842 48.797C54.8688 48.977 54.9839 49.226 54.9839 49.5C54.9839 50.052 54.5193 50.5 53.9469 50.5H53.9262ZM13.6953 3.48496C13.6953 3.48496 11.7177 4.80796 11.5259 7.14496C11.3454 9.35096 12.7319 11.806 15.6481 14.443L48.0773 42.997L22.8628 7.29696C20.9142 4.40596 18.6275 2.88696 16.2351 2.88696C14.7313 2.88696 13.7047 3.47896 13.6953 3.48496Z" fill="white"/>
<path fill-rule="evenodd" clip-rule="evenodd" d="M6.376 34.22C5.57022 34.22 4.76444 34.025 4.01985 33.632C1.22089 32.158 0.0791075 29.604 1.112 27.127C1.32666 26.614 1.93333 26.367 2.46118 26.572C2.99318 26.778 3.25037 27.361 3.03674 27.873C2.09718 30.127 4.31229 31.508 5.01437 31.877C5.93422 32.362 7.01792 32.324 7.91496 31.777C8.82548 31.222 9.33155 30.278 9.2714 29.251C9.08059 26.072 9.32533 23.098 9.99837 20.414C11.5622 14.16 16.6976 9.16807 23.399 7.38507C31.5273 5.22107 37.205 6.39007 40.2778 10.856C40.7382 11.525 41.3055 12.283 42.0241 12.837C42.6816 13.344 44.0318 14.13 45.6807 13.712C47.2539 13.313 49.6153 11.673 51.9268 6.12707C52.1415 5.61407 52.7492 5.36707 53.276 5.57207C53.808 5.77807 54.0652 6.36107 53.8516 6.87307C51.7381 11.944 49.1662 14.896 46.2096 15.646C43.6813 16.287 41.6923 15.14 40.7299 14.4C39.7862 13.673 39.0987 12.76 38.5501 11.961C35.9927 8.24607 31.2172 7.37907 23.9496 9.31307C17.9753 10.902 13.4019 15.336 12.0133 20.883C11.389 23.377 11.164 26.154 11.3403 29.137C11.4461 30.9 10.5791 32.519 9.02355 33.468C8.20326 33.968 7.28963 34.22 6.376 34.22Z" fill="white"/>
<path fill-rule="evenodd" clip-rule="evenodd" d="M22.8151 14.5C22.5755 14.5 22.336 14.421 22.141 14.259L14.8818 8.25901C14.4462 7.90001 14.3954 7.26901 14.7687 6.84901C15.1421 6.42901 15.7964 6.38201 16.2299 6.74101L23.4892 12.741C23.9247 13.1 23.9755 13.732 23.6022 14.151C23.3979 14.382 23.1065 14.5 22.8151 14.5Z" fill="white"/>
</g>
<defs>
<clipPath id="clip0_1_431">
<rect width="55" height="50" fill="white" transform="translate(0 0.5)"/>
</clipPath>
</defs>
</svg>
